<svg width="1797.377978515625px" height="228.79999999999998px" xmlns="http://www.w3.org/2000/svg" viewBox="-648.6889892578125 -39.39999999999999 1797.377978515625 228.79999999999998" style="background: rgba(0, 0, 0, 0);" preserveAspectRatio="xMidYMid"><defs><linearGradient id="editing-glowing-gradient" x1="0" x2="1" y1="0.5000000000000001" y2="0.4999999999999999"><stop offset="0" stop-color="#de3fce"></stop><stop offset="1" stop-color="#ff4773"></stop></linearGradient><filter id="editing-glowing" x="-100%" y="-100%" width="300%" height="300%"><feGaussianBlur in="SourceGraphic" result="blur" stdDeviation="25.5"></feGaussianBlur><feMerge><feMergeNode in="blur"></feMergeNode><feMergeNode in="SourceGraphic"></feMergeNode></feMerge></filter></defs><g filter="url(#editing-glowing)"><g transform="translate(-404.0649890899658, 134.1500051021576)"><path d="M28.47-55.67L28.47-55.67L28.47-55.67Q37.01-55.20 44.63-50.49L44.63-50.49L43.40-40.33L43.40-40.33Q43.29-39.45 42.48-39.45L42.48-39.45L42.30-39.45L42.30-39.45Q41.60-39.51 41.02-40.85L41.02-40.85L41.02-40.85Q38.93-45.21 34.92-48.14L34.92-48.14L34.92-48.14Q30.91-51.07 26.26-51.25L26.26-51.25L26.03-51.25L26.03-51.25Q22.43-51.25 19.00-49.45L19.00-49.45L19.00-49.45Q15.40-47.59 14.58-43.75L14.58-43.75L14.58-43.75Q14.29-42.48 14.29-41.43L14.29-41.43L14.29-41.43Q14.29-37.77 17.55-36.20L17.55-36.20L17.55-36.20Q21.67-34.11 27.14-32.89L27.14-32.89L27.14-32.89Q34.63-31.20 40.76-28.36L40.76-28.36L40.76-28.36Q46.89-25.51 47.47-16.44L47.47-16.44L47.47-15.86L47.47-15.86Q47.47-11.56 44.16-7.26L44.16-7.26L44.16-7.26Q40.56-2.61 33.76-0.23L33.76-0.23L33.76-0.23Q29.52 1.16 24.35 1.34L24.35 1.34L22.78 1.34L22.78 1.34Q15.63 1.34 9.12-0.52L9.12-0.52L4.42-13.31L4.59-14.47L4.59-14.47Q4.65-15.34 5.64-15.34L5.64-15.34L5.75-15.34L5.75-15.34Q6.33-15.22 6.97-13.95L6.97-13.95L6.97-13.95Q9.65-8.19 13.51-5.78L13.51-5.78L13.51-5.78Q17.37-3.37 23.30-3.20L23.30-3.20L24.00-3.20L24.00-3.20Q28.12-3.20 33.06-5.11L33.06-5.11L33.06-5.11Q38.41-7.21 38.64-12.67L38.64-12.67L38.64-13.02L38.64-13.02Q38.64-19.29 32.71-20.98L32.71-20.98L32.71-20.98Q26.55-22.72 21.91-24.06L21.91-24.06L21.91-24.06Q16.15-25.62 11.10-29.05L11.10-29.05L11.10-29.05Q6.10-32.42 6.10-39.05L6.10-39.05L6.10-39.34L6.10-39.34Q6.16-48.34 13.07-52.18L13.07-52.18L13.07-52.18Q19.41-55.72 27.08-55.72L27.08-55.72L27.08-55.72Q27.77-55.72 28.47-55.67ZM72.40-46.14L72.40-8.48L72.40-8.48Q72.40-4.71 75.30-3.69L75.30-3.69L75.30-3.69Q78.21-2.67 78.21-1.22L78.21-1.22L78.21-1.22Q78.21 0 77.05 0L77.05 0L57.35 0L57.35 0Q56.13 0 56.13-1.22L56.13-1.22L56.13-1.22Q56.13-2.67 59.04-3.69L59.04-3.69L59.04-3.69Q61.94-4.71 61.94-8.48L61.94-8.48L61.94-73.04L61.94-73.04Q61.94-76.76 59.04-77.80L59.04-77.80L59.04-77.80Q56.13-78.85 56.13-80.36L56.13-80.36L56.13-80.36Q56.13-81.58 57.35-81.58L57.35-81.58L57.35-81.58Q61.19-81.75 64.93-82.74L64.93-82.74L64.93-82.74Q68.68-83.73 72.40-85.01L72.40-85.01L72.40-49.56L72.40-49.56Q75.60-50.78 78.04-51.71L78.04-51.71L78.04-51.71Q80.48-52.64 82.68-53.40L82.68-53.40L82.68-53.40Q88.03-55.26 93.78-55.84L93.78-55.84L93.78-55.84Q94.48-55.90 95.23-55.90L95.23-55.90L95.23-55.90Q100.12-55.90 104.53-52.59L104.53-52.59L104.53-52.59Q111.56-47.18 111.56-29.40L111.56-29.40L111.56-8.48L111.56-8.48Q111.56-4.71 114.47-3.69L114.47-3.69L114.47-3.69Q117.37-2.67 117.37-1.22L117.37-1.22L117.37-1.22Q117.37 0 116.21 0L116.21 0L102.09 0L102.09 0Q101.10 0 101.10-0.76L101.10-0.76L101.10-29.40L101.10-29.40Q101.10-42.13 95.82-47.30L95.82-47.30L95.82-47.30Q92.45-50.61 87.56-50.61L87.56-50.61L87.56-50.61Q84.78-50.61 81.46-49.51L81.46-49.51L81.46-49.51Q80.19-49.04 78.24-48.31L78.24-48.31L78.24-48.31Q76.29-47.59 74.90-47.07L74.90-47.07L74.90-47.07Q73.50-46.54 72.40-46.14L72.40-46.14ZM167.81-0.76L167.81-5.06L151.83 0.81L151.83 0.81Q149.97 1.45 148.75 1.45L148.75 1.45L146.37 1.45L146.37 1.45Q138.12 1.05 132.13-5.29L132.13-5.29L132.13-5.29Q126.15-11.62 125.33-20.86L125.33-20.86L125.33-20.86Q125.10-23.30 125.10-25.57L125.10-25.57L125.10-25.57Q125.10-28.59 125.51-31.44L125.51-31.44L125.51-31.44Q126.21-36.37 129.34-41.31L129.34-41.31L129.34-41.31Q130.85-43.87 134.51-46.66L134.51-46.66L134.51-46.66Q135.79-47.53 137.36-48.23L137.36-48.23L137.36-48.23Q142.01-49.97 146.69-51.71L146.69-51.71L146.69-51.71Q151.36-53.46 156.07-55.20L156.07-55.20L156.07-55.20Q157.06-55.55 157.93-55.55L157.93-55.55L158.22-55.55L158.22-55.55Q161.94-55.37 167.23-53.69L167.23-53.69L167.23-53.69Q167.69-53.52 167.81-53.46L167.81-53.46L167.81-53.46Q169.09-52.93 170.95-52.29L170.95-52.29L170.95-52.29Q171.70-52.06 172.34-52.06L172.34-52.06L172.34-52.06Q173.27-52.06 173.97-52.59L173.97-52.59L173.97-52.59Q175.19-53.63 175.71-54.33L175.71-54.33L175.71-54.33Q176.00-54.74 176.47-54.74L176.47-54.74L176.47-54.74Q176.76-54.74 177.05-54.62L177.05-54.62L177.05-54.62Q178.33-54.15 178.33-53.46L178.33-53.46L178.33-8.48L178.33-8.48Q178.33-4.71 181.23-3.69L181.23-3.69L181.23-3.69Q184.14-2.67 184.14-1.22L184.14-1.22L184.14-1.22Q184.14 0 182.92 0L182.92 0L168.80 0L168.80 0Q167.81 0 167.81-0.76L167.81-0.76ZM167.81-8.48L167.81-44.68L167.81-44.68Q165.43-46.89 161.53-48.78L161.53-48.78L161.53-48.78Q157.64-50.67 154.62-50.78L154.62-50.78L154.39-50.78L154.39-50.78Q153.22-50.78 152.06-50.32L152.06-50.32L152.06-50.32Q149.97-49.56 147.91-48.78L147.91-48.78L147.91-48.78Q145.84-48.00 143.75-47.24L143.75-47.24L143.75-47.24Q142.30-46.66 141.43-45.73L141.43-45.73L141.43-45.73Q137.83-41.89 136.61-36.43L136.61-36.43L136.61-36.43Q135.62-32.31 135.62-28.24L135.62-28.24L135.62-28.24Q135.62-26.96 135.73-25.62L135.73-25.62L135.73-25.62Q136.37-17.26 140.27-12.03L140.27-12.03L140.27-12.03Q144.16-6.62 150.03-5.00L150.03-5.00L150.03-5.00Q152.24-4.36 154.50-4.36L154.50-4.36L154.50-4.36Q155.20-4.36 155.96-4.42L155.96-4.42L155.96-4.42Q157.23-4.53 158.98-5.17L158.98-5.17L158.98-5.17Q160.31-5.64 163.16-6.71L163.16-6.71L163.16-6.71Q166.01-7.79 167.81-8.48L167.81-8.48ZM209.64-57.64L209.64-49.56L209.64-49.56Q212.84-50.78 215.28-51.71L215.28-51.71L215.28-51.71Q217.72-52.64 219.93-53.40L219.93-53.40L219.93-53.40Q225.27-55.26 231.03-55.84L231.03-55.84L231.03-55.84Q231.72-55.90 232.48-55.90L232.48-55.90L232.48-55.90Q237.36-55.90 241.78-52.59L241.78-52.59L241.78-52.59Q248.81-47.18 248.81-29.40L248.81-29.40L248.81-8.48L248.81-8.48Q248.81-4.71 251.71-3.69L251.71-3.69L251.71-3.69Q254.62-2.67 254.62-1.22L254.62-1.22L254.62-1.22Q254.62 0 253.46 0L253.46 0L239.34 0L239.34 0Q238.35 0 238.35-0.76L238.35-0.76L238.35-29.40L238.35-29.40Q238.35-42.13 233.06-47.30L233.06-47.30L233.06-47.30Q229.69-50.61 224.81-50.61L224.81-50.61L224.81-50.61Q222.02-50.61 218.71-49.51L218.71-49.51L218.71-49.51Q217.43-49.04 215.48-48.31L215.48-48.31L215.48-48.31Q213.54-47.59 212.14-47.07L212.14-47.07L212.14-47.07Q210.75-46.54 209.64-46.14L209.64-46.14L209.64-8.48L209.64-8.48Q209.64-4.71 212.55-3.69L212.55-3.69L212.55-3.69Q215.46-2.67 215.46-1.22L215.46-1.22L215.46-1.22Q215.46 0 214.29 0L214.29 0L194.60 0L194.60 0Q193.38 0 193.38-1.22L193.38-1.22L193.38-1.22Q193.38-2.67 196.28-3.69L196.28-3.69L196.28-3.69Q199.19-4.71 199.19-8.48L199.19-8.48L199.19-45.67L199.19-45.67Q199.19-49.33 196.28-50.38L196.28-50.38L196.28-50.38Q193.38-51.42 193.38-52.93L193.38-52.93L193.38-52.93Q193.38-54.15 194.60-54.15L194.60-54.15L194.60-54.15Q198.43-54.33 202.18-55.35L202.18-55.35L202.18-55.35Q205.93-56.36 209.64-57.64L209.64-57.64ZM279.84-57.64L279.84-50.03L279.84-50.03Q282.57-51.07 284.75-51.89L284.75-51.89L284.75-51.89Q286.92-52.70 288.90-53.40L288.90-53.40L288.90-53.40Q294.25-55.26 300.00-55.84L300.00-55.84L300.00-55.84Q300.70-55.90 301.45-55.90L301.45-55.90L301.45-55.90Q306.33-55.90 310.75-52.59L310.75-52.59L310.75-52.59Q312.26-51.37 313.19-50.15L313.19-50.15L313.19-50.15Q315.80-51.13 317.92-51.92L317.92-51.92L317.92-51.92Q320.04-52.70 321.96-53.40L321.96-53.40L321.96-53.40Q327.31-55.26 333.00-55.84L333.00-55.84L333.00-55.84Q333.76-55.90 334.51-55.90L334.51-55.90L334.51-55.90Q339.34-55.90 343.75-52.59L343.75-52.59L343.75-52.59Q350.84-47.18 350.84-29.40L350.84-29.40L350.84-8.48L350.84-8.48Q350.84-4.71 353.75-3.69L353.75-3.69L353.75-3.69Q356.65-2.67 356.65-1.22L356.65-1.22L356.65-1.22Q356.65 0 355.43 0L355.43 0L341.31 0L341.31 0Q340.38 0 340.38-0.76L340.38-0.76L340.38-29.40L340.38-29.40Q340.38-42.13 335.09-47.30L335.09-47.30L335.09-47.30Q331.72-50.61 326.84-50.61L326.84-50.61L326.84-50.61Q324.05-50.61 320.74-49.51L320.74-49.51L320.74-49.51Q319.58-49.10 317.92-48.49L317.92-48.49L317.92-48.49Q316.27-47.88 314.87-47.36L314.87-47.36L314.87-47.36Q317.78-41.37 317.78-29.40L317.78-29.40L317.78-8.48L317.78-8.48Q317.78-4.71 320.68-3.69L320.68-3.69L320.68-3.69Q323.59-2.67 323.59-1.22L323.59-1.22L323.59-1.22Q323.59 0 322.43 0L322.43 0L302.73 0L302.73 0Q301.51 0 301.51-1.22L301.51-1.22L301.51-1.22Q301.51-2.67 304.41-3.69L304.41-3.69L304.41-3.69Q307.32-4.71 307.32-8.48L307.32-8.48L307.32-29.40L307.32-29.40Q307.32-42.13 302.03-47.30L302.03-47.30L302.03-47.30Q298.66-50.61 293.78-50.61L293.78-50.61L293.78-50.61Q290.99-50.61 287.68-49.51L287.68-49.51L287.68-49.51Q285.65-48.81 283.70-48.05L283.70-48.05L283.70-48.05Q281.75-47.30 279.84-46.60L279.84-46.60L279.84-8.48L279.84-8.48Q279.84-4.71 282.74-3.69L282.74-3.69L282.74-3.69Q285.65-2.67 285.65-1.22L285.65-1.22L285.65-1.22Q285.65 0 284.48 0L284.48 0L264.79 0L264.79 0Q263.57 0 263.57-1.22L263.57-1.22L263.57-1.22Q263.57-2.67 266.47-3.69L266.47-3.69L266.47-3.69Q269.38-4.71 269.38-8.48L269.38-8.48L269.38-45.67L269.38-45.67Q269.38-49.33 266.47-50.38L266.47-50.38L266.47-50.38Q263.57-51.42 263.57-52.93L263.57-52.93L263.57-52.93Q263.57-54.15 264.79-54.15L264.79-54.15L264.79-54.15Q268.62-54.33 272.37-55.35L272.37-55.35L272.37-55.35Q276.12-56.36 279.84-57.64L279.84-57.64ZM408.54-0.76L408.54-5.06L392.56 0.81L392.56 0.81Q390.70 1.45 389.48 1.45L389.48 1.45L387.10 1.45L387.10 1.45Q378.85 1.05 372.86-5.29L372.86-5.29L372.86-5.29Q366.88-11.62 366.06-20.86L366.06-20.86L366.06-20.86Q365.83-23.30 365.83-25.57L365.83-25.57L365.83-25.57Q365.83-28.59 366.24-31.44L366.24-31.44L366.24-31.44Q366.94-36.37 370.07-41.31L370.07-41.31L370.07-41.31Q371.58-43.87 375.25-46.66L375.25-46.66L375.25-46.66Q376.52-47.53 378.09-48.23L378.09-48.23L378.09-48.23Q382.74-49.97 387.42-51.71L387.42-51.71L387.42-51.71Q392.10-53.46 396.80-55.20L396.80-55.20L396.80-55.20Q397.79-55.55 398.66-55.55L398.66-55.55L398.95-55.55L398.95-55.55Q402.67-55.37 407.96-53.69L407.96-53.69L407.96-53.69Q408.42-53.52 408.54-53.46L408.54-53.46L408.54-53.46Q409.82-52.93 411.68-52.29L411.68-52.29L411.68-52.29Q412.43-52.06 413.07-52.06L413.07-52.06L413.07-52.06Q414.00-52.06 414.70-52.59L414.70-52.59L414.70-52.59Q415.92-53.63 416.44-54.33L416.44-54.33L416.44-54.33Q416.73-54.74 417.20-54.74L417.20-54.74L417.20-54.74Q417.49-54.74 417.78-54.62L417.78-54.62L417.78-54.62Q419.06-54.15 419.06-53.46L419.06-53.46L419.06-8.48L419.06-8.48Q419.06-4.71 421.96-3.69L421.96-3.69L421.96-3.69Q424.87-2.67 424.87-1.22L424.87-1.22L424.87-1.22Q424.87 0 423.65 0L423.65 0L409.53 0L409.53 0Q408.54 0 408.54-0.76L408.54-0.76ZM408.54-8.48L408.54-44.68L408.54-44.68Q406.16-46.89 402.26-48.78L402.26-48.78L402.26-48.78Q398.37-50.67 395.35-50.78L395.35-50.78L395.12-50.78L395.12-50.78Q393.96-50.78 392.79-50.32L392.79-50.32L392.79-50.32Q390.70-49.56 388.64-48.78L388.64-48.78L388.64-48.78Q386.58-48.00 384.48-47.24L384.48-47.24L384.48-47.24Q383.03-46.66 382.16-45.73L382.16-45.73L382.16-45.73Q378.56-41.89 377.34-36.43L377.34-36.43L377.34-36.43Q376.35-32.31 376.35-28.24L376.35-28.24L376.35-28.24Q376.35-26.96 376.47-25.62L376.47-25.62L376.47-25.62Q377.10-17.26 381.00-12.03L381.00-12.03L381.00-12.03Q384.89-6.62 390.76-5.00L390.76-5.00L390.76-5.00Q392.97-4.36 395.23-4.36L395.23-4.36L395.23-4.36Q395.93-4.36 396.69-4.42L396.69-4.42L396.69-4.42Q397.96-4.53 399.71-5.17L399.71-5.17L399.71-5.17Q401.04-5.64 403.89-6.71L403.89-6.71L403.89-6.71Q406.74-7.79 408.54-8.48L408.54-8.48ZM441.37-14.53L441.37-49.10L441.37-49.10Q439.16-49.04 434.75-48.81L434.75-48.81L434.45-48.81L434.45-48.81Q433.35-48.81 433.29-49.97L433.29-49.97L433.29-50.09L433.29-50.09Q433.29-51.02 434.40-51.54L434.40-51.54L434.40-51.54Q435.56-52.06 439.22-54.04L439.22-54.04L439.22-54.04Q440.09-54.50 440.90-54.85L440.90-54.85L440.90-54.85Q441.08-54.91 441.37-54.91L441.37-54.91L441.37-64.85L441.37-64.85Q441.37-67.75 442.56-68.88L442.56-68.88L442.56-68.88Q443.75-70.02 448.05-72.05L448.05-72.05L448.05-72.05Q449.62-72.81 450.55-72.81L450.55-72.81L450.55-72.81Q451.89-72.81 451.89-71.30L451.89-71.30L451.89-55.08L465.72-55.37L465.77-55.37L465.77-55.37Q466.65-55.37 466.65-53.86L466.65-53.86L466.65-53.86Q466.65-53.05 466.41-51.89L466.41-51.89L466.41-51.89Q465.83-49.16 463.80-49.16L463.80-49.16L451.89-49.22L451.89-12.78L451.89-12.78Q451.89-7.50 455.58-4.88L455.58-4.88L455.58-4.88Q459.27-2.27 461.88-1.92L461.88-1.92L461.88-0.06L461.88-0.06Q453.22-0.06 447.30-1.69L447.30-1.69L447.30-1.69Q441.37-3.31 441.37-14.53L441.37-14.53ZM490.00-46.14L490.00-8.48L490.00-8.48Q490.00-4.71 492.91-3.69L492.91-3.69L492.91-3.69Q495.81-2.67 495.81-1.22L495.81-1.22L495.81-1.22Q495.81 0 494.65 0L494.65 0L474.95 0L474.95 0Q473.73 0 473.73-1.22L473.73-1.22L473.73-1.22Q473.73-2.67 476.64-3.69L476.64-3.69L476.64-3.69Q479.54-4.71 479.54-8.48L479.54-8.48L479.54-73.04L479.54-73.04Q479.54-76.76 476.64-77.80L476.64-77.80L476.64-77.80Q473.73-78.85 473.73-80.36L473.73-80.36L473.73-80.36Q473.73-81.58 474.95-81.58L474.95-81.58L474.95-81.58Q478.79-81.75 482.54-82.74L482.54-82.74L482.54-82.74Q486.28-83.73 490.00-85.01L490.00-85.01L490.00-49.56L490.00-49.56Q493.20-50.78 495.64-51.71L495.64-51.71L495.64-51.71Q498.08-52.64 500.29-53.40L500.29-53.40L500.29-53.40Q505.63-55.26 511.39-55.84L511.39-55.84L511.39-55.84Q512.08-55.90 512.84-55.90L512.84-55.90L512.84-55.90Q517.72-55.90 522.14-52.59L522.14-52.59L522.14-52.59Q529.17-47.18 529.17-29.40L529.17-29.40L529.17-8.48L529.17-8.48Q529.17-4.71 532.07-3.69L532.07-3.69L532.07-3.69Q534.98-2.67 534.98-1.22L534.98-1.22L534.98-1.22Q534.98 0 533.81 0L533.81 0L519.70 0L519.70 0Q518.71 0 518.71-0.76L518.71-0.76L518.71-29.40L518.71-29.40Q518.71-42.13 513.42-47.30L513.42-47.30L513.42-47.30Q510.05-50.61 505.17-50.61L505.17-50.61L505.17-50.61Q502.38-50.61 499.07-49.51L499.07-49.51L499.07-49.51Q497.79-49.04 495.84-48.31L495.84-48.31L495.84-48.31Q493.90-47.59 492.50-47.07L492.50-47.07L492.50-47.07Q491.11-46.54 490.00-46.14L490.00-46.14ZM556.65-81.35L556.65-81.35L556.65-81.35Q562.98-81.35 562.98-74.96L562.98-74.96L562.98-74.96Q562.98-68.51 556.65-68.51L556.65-68.51L556.65-68.51Q550.32-68.51 550.32-74.96L550.32-74.96L550.32-74.96Q550.32-81.35 556.65-81.35ZM561.88-57.64L561.88-8.48L561.88-8.48Q561.88-4.71 564.79-3.69L564.79-3.69L564.79-3.69Q567.69-2.67 567.69-1.22L567.69-1.22L567.69-1.22Q567.69 0 566.53 0L566.53 0L546.83 0L546.83 0Q545.61 0 545.61-1.22L545.61-1.22L545.61-1.22Q545.61-2.67 548.52-3.69L548.52-3.69L548.52-3.69Q551.42-4.71 551.42-8.48L551.42-8.48L551.42-45.67L551.42-45.67Q551.42-49.33 548.52-50.38L548.52-50.38L548.52-50.38Q545.61-51.42 545.61-52.93L545.61-52.93L545.61-52.93Q545.61-54.15 546.83-54.15L546.83-54.15L546.83-54.15Q550.67-54.33 554.41-55.35L554.41-55.35L554.41-55.35Q558.16-56.36 561.88-57.64L561.88-57.64ZM651.77-11.56L651.83-11.56L651.83-44.68L651.83-44.68Q649.44-46.89 645.55-48.78L645.55-48.78L645.55-48.78Q641.66-50.67 638.64-50.78L638.64-50.78L638.40-50.78L638.40-50.78Q637.24-50.78 636.08-50.32L636.08-50.32L636.08-50.32Q633.99-49.56 631.93-48.78L631.93-48.78L631.93-48.78Q629.86-48.00 627.77-47.24L627.77-47.24L627.77-47.24Q626.32-46.66 625.45-45.73L625.45-45.73L625.45-45.73Q621.84-41.89 620.62-36.43L620.62-36.43L620.62-36.43Q619.64-32.31 619.64-28.24L619.64-28.24L619.64-28.24Q619.64-26.96 619.75-25.62L619.75-25.62L619.75-25.62Q620.39-17.26 624.29-12.03L624.29-12.03L624.29-12.03Q628.18-6.62 634.05-5.00L634.05-5.00L634.05-5.00Q636.25-4.36 638.52-4.36L638.52-4.36L638.52-4.36Q639.22-4.36 639.97-4.42L639.97-4.42L639.97-4.42Q641.25-4.53 643.00-5.17L643.00-5.17L643.00-5.17Q644.33-5.64 647.15-6.68L647.15-6.68L647.15-6.68Q649.97-7.73 651.77-8.43L651.77-8.43L651.77-11.56ZM651.83 13.77L651.77-5.06L635.85 0.81L635.85 0.81Q633.99 1.45 632.77 1.45L632.77 1.45L630.39 1.45L630.39 1.45Q622.14 1.05 616.15-5.29L616.15-5.29L616.15-5.29Q610.17-11.62 609.35-20.86L609.35-20.86L609.35-20.86Q609.12-23.30 609.12-25.57L609.12-25.57L609.12-25.57Q609.12-28.59 609.53-31.44L609.53-31.44L609.53-31.44Q610.22-36.37 613.36-41.31L613.36-41.31L613.36-41.31Q614.87-43.87 618.53-46.66L618.53-46.66L618.53-46.66Q619.81-47.53 621.38-48.23L621.38-48.23L621.38-48.23Q626.03-49.97 630.71-51.71L630.71-51.71L630.71-51.71Q635.38-53.46 640.09-55.20L640.09-55.20L640.09-55.20Q641.08-55.55 641.95-55.55L641.95-55.55L642.24-55.55L642.24-55.55Q645.96-55.37 651.25-53.69L651.25-53.69L651.25-53.69Q651.71-53.52 651.83-53.46L651.83-53.46L651.83-53.46Q653.11-52.93 654.96-52.29L654.96-52.29L654.96-52.29Q655.72-52.06 656.36-52.06L656.36-52.06L656.36-52.06Q657.29-52.06 657.99-52.59L657.99-52.59L657.99-52.59Q659.21-53.63 659.73-54.33L659.73-54.33L659.73-54.33Q660.02-54.74 660.48-54.74L660.48-54.74L660.48-54.74Q660.78-54.74 661.07-54.62L661.07-54.62L661.07-54.62Q662.34-54.15 662.34-53.46L662.34-53.46L662.34 10.46L662.34 10.46Q662.34 20.05 659.61 22.43L659.61 22.43L659.61 22.43Q656.88 24.81 651.83 26.67L651.83 26.67L635.85 32.66L635.85 32.66Q633.99 33.29 632.77 33.29L632.77 33.29L632.77 33.29Q631.26 33.29 630.39 33.24L630.39 33.24L630.39 33.24Q622.19 32.95 616.15 26.50L616.15 26.50L616.15 26.50Q613.01 23.07 611.15 18.30L611.15 18.30L611.15 18.30Q616.21 16.33 621.50 14.41L621.50 14.41L621.50 14.41Q622.54 17.37 624.29 19.76L624.29 19.76L624.29 19.76Q628.24 25.10 634.05 26.79L634.05 26.79L634.05 26.79Q636.25 27.37 638.40 27.37L638.40 27.37L638.40 27.37Q639.22 27.37 639.97 27.31L639.97 27.31L639.97 27.31Q641.25 27.19 643.00 26.61L643.00 26.61L643.00 26.61Q643.69 26.32 644.80 25.92L644.80 25.92L644.80 25.92Q645.90 25.51 647.18 25.04L647.18 25.04L647.18 25.04Q649.97 23.65 650.90 19.41L650.90 19.41L650.90 19.41Q651.83 15.17 651.83 13.77L651.83 13.77ZM730.04-57.64L730.04-8.48L730.04-8.48Q730.04-4.71 732.94-3.69L732.94-3.69L732.94-3.69Q735.85-2.67 735.85-1.22L735.85-1.22L735.85-1.22Q735.85 0 734.63 0L734.63 0L720.51 0L720.51 0Q719.52 0 719.52-0.76L719.52-0.76L719.52-4.53L719.52-4.53Q716.32-3.31 713.85-2.35L713.85-2.35L713.85-2.35Q711.39-1.39 709.29-0.70L709.29-0.70L709.29-0.70Q703.89 1.10 698.20 1.69L698.20 1.69L698.20 1.69Q697.38 1.74 696.63 1.74L696.63 1.74L696.63 1.74Q691.80 1.74 687.45-1.51L687.45-1.51L687.45-1.51Q680.36-6.86 680.36-24.69L680.36-24.69L680.36-45.67L680.36-45.67Q680.36-49.33 677.45-50.38L677.45-50.38L677.45-50.38Q674.55-51.42 674.55-52.93L674.55-52.93L674.55-52.93Q674.55-54.15 675.77-54.15L675.77-54.15L675.77-54.15Q679.60-54.33 683.35-55.35L683.35-55.35L683.35-55.35Q687.10-56.36 690.87-57.64L690.87-57.64L690.87-24.69L690.87-24.69Q690.87-11.91 696.16-6.80L696.16-6.80L696.16-6.80Q699.53-3.49 704.41-3.49L704.41-3.49L704.41-3.49Q707.20-3.49 710.51-4.59L710.51-4.59L710.51-4.59Q711.73-5.00 713.71-5.75L713.71-5.75L713.71-5.75Q715.69-6.51 717.08-7.03L717.08-7.03L717.08-7.03Q717.37-7.15 718.04-7.38L718.04-7.38L718.04-7.38Q718.71-7.61 719.52-7.96L719.52-7.96L719.52-45.67L719.52-45.67Q719.52-49.33 716.61-50.38L716.61-50.38L716.61-50.38Q713.71-51.42 713.71-52.93L713.71-52.93L713.71-52.93Q713.71-54.15 714.93-54.15L714.93-54.15L714.93-54.15Q718.76-54.33 722.51-55.35L722.51-55.35L722.51-55.35Q726.26-56.36 730.04-57.64L730.04-57.64ZM762.63-57.64L762.63-49.56L762.63-49.56Q765.83-50.78 768.27-51.71L768.27-51.71L768.27-51.71Q770.71-52.64 772.92-53.40L772.92-53.40L772.92-53.40Q778.26-55.26 784.02-55.84L784.02-55.84L784.02-55.84Q784.71-55.90 785.47-55.90L785.47-55.90L785.47-55.90Q790.35-55.90 794.77-52.59L794.77-52.59L794.77-52.59Q801.80-47.18 801.80-29.40L801.80-29.40L801.80-8.48L801.80-8.48Q801.80-4.71 804.70-3.69L804.70-3.69L804.70-3.69Q807.61-2.67 807.61-1.22L807.61-1.22L807.61-1.22Q807.61 0 806.45 0L806.45 0L792.33 0L792.33 0Q791.34 0 791.34-0.76L791.34-0.76L791.34-29.40L791.34-29.40Q791.34-42.13 786.05-47.30L786.05-47.30L786.05-47.30Q782.68-50.61 777.80-50.61L777.80-50.61L777.80-50.61Q775.01-50.61 771.70-49.51L771.70-49.51L771.70-49.51Q770.42-49.04 768.47-48.31L768.47-48.31L768.47-48.31Q766.53-47.59 765.13-47.07L765.13-47.07L765.13-47.07Q763.74-46.54 762.63-46.14L762.63-46.14L762.63-8.48L762.63-8.48Q762.63-4.71 765.54-3.69L765.54-3.69L765.54-3.69Q768.44-2.67 768.44-1.22L768.44-1.22L768.44-1.22Q768.44 0 767.28 0L767.28 0L747.58 0L747.58 0Q746.36 0 746.36-1.22L746.36-1.22L746.36-1.22Q746.36-2.67 749.27-3.69L749.27-3.69L749.27-3.69Q752.18-4.71 752.18-8.48L752.18-8.48L752.18-45.67L752.18-45.67Q752.18-49.33 749.27-50.38L749.27-50.38L749.27-50.38Q746.36-51.42 746.36-52.93L746.36-52.93L746.36-52.93Q746.36-54.15 747.58-54.15L747.58-54.15L747.58-54.15Q751.42-54.33 755.17-55.35L755.17-55.35L755.17-55.35Q758.92-56.36 762.63-57.64L762.63-57.64ZM857.11-0.76L857.11-5.06L841.13 0.81L841.13 0.81Q839.28 1.45 838.06 1.45L838.06 1.45L835.67 1.45L835.67 1.45Q827.42 1.05 821.44-5.29L821.44-5.29L821.44-5.29Q815.45-11.62 814.64-20.86L814.64-20.86L814.64-20.86Q814.41-23.30 814.41-25.57L814.41-25.57L814.41-25.57Q814.41-28.59 814.81-31.44L814.81-31.44L814.81-31.44Q815.51-36.37 818.65-41.31L818.65-41.31L818.65-41.31Q820.16-43.87 823.82-46.66L823.82-46.66L823.82-46.66Q825.10-47.53 826.67-48.23L826.67-48.23L826.67-48.23Q831.31-49.97 835.99-51.71L835.99-51.71L835.99-51.71Q840.67-53.46 845.38-55.20L845.38-55.20L845.38-55.20Q846.36-55.55 847.24-55.55L847.24-55.55L847.53-55.55L847.53-55.55Q851.25-55.37 856.53-53.69L856.53-53.69L856.53-53.69Q857.00-53.52 857.11-53.46L857.11-53.46L857.11-53.46Q858.39-52.93 860.25-52.29L860.25-52.29L860.25-52.29Q861.01-52.06 861.65-52.06L861.65-52.06L861.65-52.06Q862.58-52.06 863.27-52.59L863.27-52.59L863.27-52.59Q864.49-53.63 865.02-54.33L865.02-54.33L865.02-54.33Q865.31-54.74 865.77-54.74L865.77-54.74L865.77-54.74Q866.06-54.74 866.35-54.62L866.35-54.62L866.35-54.62Q867.63-54.15 867.63-53.46L867.63-53.46L867.63-8.48L867.63-8.48Q867.63-4.71 870.54-3.69L870.54-3.69L870.54-3.69Q873.44-2.67 873.44-1.22L873.44-1.22L873.44-1.22Q873.44 0 872.22 0L872.22 0L858.10 0L858.10 0Q857.11 0 857.11-0.76L857.11-0.76ZM857.11-8.48L857.11-44.68L857.11-44.68Q854.73-46.89 850.84-48.78L850.84-48.78L850.84-48.78Q846.95-50.67 843.92-50.78L843.92-50.78L843.69-50.78L843.69-50.78Q842.53-50.78 841.37-50.32L841.37-50.32L841.37-50.32Q839.28-49.56 837.21-48.78L837.21-48.78L837.21-48.78Q835.15-48.00 833.06-47.24L833.06-47.24L833.06-47.24Q831.61-46.66 830.73-45.73L830.73-45.73L830.73-45.73Q827.13-41.89 825.91-36.43L825.91-36.43L825.91-36.43Q824.92-32.31 824.92-28.24L824.92-28.24L824.92-28.24Q824.92-26.96 825.04-25.62L825.04-25.62L825.04-25.62Q825.68-17.26 829.57-12.03L829.57-12.03L829.57-12.03Q833.46-6.62 839.33-5.00L839.33-5.00L839.33-5.00Q841.54-4.36 843.81-4.36L843.81-4.36L843.81-4.36Q844.50-4.36 845.26-4.42L845.26-4.42L845.26-4.42Q846.54-4.53 848.28-5.17L848.28-5.17L848.28-5.17Q849.62-5.64 852.47-6.71L852.47-6.71L852.47-6.71Q855.31-7.79 857.11-8.48L857.11-8.48ZM906.39-55.67L906.39-55.67L906.39-55.67Q914.93-55.20 922.54-50.49L922.54-50.49L921.32-40.33L921.32-40.33Q921.20-39.45 920.39-39.45L920.39-39.45L920.22-39.45L920.22-39.45Q919.52-39.51 918.94-40.85L918.94-40.85L918.94-40.85Q916.85-45.21 912.84-48.14L912.84-48.14L912.84-48.14Q908.83-51.07 904.18-51.25L904.18-51.25L903.95-51.25L903.95-51.25Q900.34-51.25 896.92-49.45L896.92-49.45L896.92-49.45Q893.31-47.59 892.50-43.75L892.50-43.75L892.50-43.75Q892.21-42.48 892.21-41.43L892.21-41.43L892.21-41.43Q892.21-37.77 895.46-36.20L895.46-36.20L895.46-36.20Q899.59-34.11 905.05-32.89L905.05-32.89L905.05-32.89Q912.55-31.20 918.68-28.36L918.68-28.36L918.68-28.36Q924.81-25.51 925.39-16.44L925.39-16.44L925.39-15.86L925.39-15.86Q925.39-11.56 922.08-7.26L922.08-7.26L922.08-7.26Q918.47-2.61 911.67-0.23L911.67-0.23L911.67-0.23Q907.43 1.16 902.26 1.34L902.26 1.34L900.69 1.34L900.69 1.34Q893.55 1.34 887.04-0.52L887.04-0.52L882.33-13.31L882.51-14.47L882.51-14.47Q882.56-15.34 883.55-15.34L883.55-15.34L883.67-15.34L883.67-15.34Q884.25-15.22 884.89-13.95L884.89-13.95L884.89-13.95Q887.56-8.19 891.43-5.78L891.43-5.78L891.43-5.78Q895.29-3.37 901.22-3.20L901.22-3.20L901.91-3.20L901.91-3.20Q906.04-3.20 910.98-5.11L910.98-5.11L910.98-5.11Q916.32-7.21 916.56-12.67L916.56-12.67L916.56-13.02L916.56-13.02Q916.56-19.29 910.63-20.98L910.63-20.98L910.63-20.98Q904.47-22.72 899.82-24.06L899.82-24.06L899.82-24.06Q894.07-25.62 889.01-29.05L889.01-29.05L889.01-29.05Q884.02-32.42 884.02-39.05L884.02-39.05L884.02-39.34L884.02-39.34Q884.07-48.34 890.99-52.18L890.99-52.18L890.99-52.18Q897.32-55.72 904.99-55.72L904.99-55.72L904.99-55.72Q905.69-55.72 906.39-55.67ZM933.41-32.02L933.41-32.02L933.41-32.02Q935.03-42.77 941.98-49.22L941.98-49.22L941.98-49.22Q948.92-55.67 960.25-55.78L960.25-55.78L960.48-55.78L960.48-55.78Q971.93-55.78 977.97-49.27L977.97-49.27L977.97-49.27Q984.02-42.65 984.02-32.02L984.02-32.02L984.02-32.02Q983.96-29.69 983.84-28.73L983.84-28.73L983.84-28.73Q983.73-27.77 981.46-27.77L981.46-27.77L944.45-27.77L944.45-27.77Q944.62-18.36 949.21-12.17L949.21-12.17L949.21-12.17Q953.80-5.98 960.77-4.59L960.77-4.59L960.77-4.59Q962.81-4.13 964.90-4.13L964.90-4.13L964.90-4.13Q970.42-4.13 976.35-7.32L976.35-7.32L976.35-7.32Q979.66-9.12 980.82-9.12L980.82-9.12L980.82-9.12Q981.11-9.12 981.29-9.01L981.29-9.01L981.29-9.01Q981.46-8.83 981.46-8.48L981.46-8.48L981.46-8.48Q981.46-7.73 980.70-6.33L980.70-6.33L980.70-6.33Q980.01-4.94 979.57-4.47L979.57-4.47L979.57-4.47Q979.14-4.01 978.79-3.66L978.79-3.66L978.79-3.66Q972.45 1.80 961.59 1.80L961.59 1.80L961.59 1.80Q946.36 1.69 938.75-7.96L938.75-7.96L938.75-7.96Q932.88-15.40 932.88-25.62L932.88-25.62L932.88-25.62Q932.88-28.70 933.41-32.02ZM944.45-32.02L944.45-32.02L975.07-32.02L975.07-32.02Q975.07-39.10 971.87-45.03L971.87-45.03L971.87-45.03Q968.79-50.67 960.60-50.67L960.60-50.67L959.96-50.67L959.96-50.67Q951.77-50.44 948.22-44.74L948.22-44.74L948.22-44.74Q944.68-39.05 944.45-32.02ZM1009.81-25.74L1009.81-25.74L1009.81-8.48L1009.81-8.48Q1009.81-4.71 1012.72-3.69L1012.72-3.69L1012.72-3.69Q1015.63-2.67 1015.63-1.22L1015.63-1.22L1015.63-1.22Q1015.63 0 1014.46 0L1014.46 0L994.77 0L994.77 0Q993.55 0 993.55-1.22L993.55-1.22L993.55-1.22Q993.55-2.67 996.45-3.69L996.45-3.69L996.45-3.69Q999.36-4.71 999.36-8.48L999.36-8.48L999.36-73.04L999.36-73.04Q999.36-76.76 996.45-77.80L996.45-77.80L996.45-77.80Q993.55-78.85 993.55-80.36L993.55-80.36L993.55-80.36Q993.55-81.58 994.77-81.58L994.77-81.58L994.77-81.58Q998.60-81.75 1002.35-82.74L1002.35-82.74L1002.35-82.74Q1006.10-83.73 1009.81-85.01L1009.81-85.01L1009.81-32.02L1030.38-48.46L1030.38-48.46Q1033.93-51.37 1036.66-53.05L1036.66-53.05L1036.66-53.05Q1038.23-53.98 1039.62-53.98L1039.62-53.98L1039.62-53.98Q1040.67-53.98 1041.66-53.46L1041.66-53.46L1045.96-50.78L1045.96-50.78Q1046.65-50.32 1046.65-49.74L1046.65-49.74L1046.65-49.74Q1046.65-49.45 1046.48-49.16L1046.48-49.16L1043.75-43.06L1040.84-44.57L1040.84-44.57Q1039.10-45.44 1037.47-45.44L1037.47-45.44L1037.47-45.44Q1035.50-45.44 1033.75-44.16L1033.75-44.16L1033.75-44.16Q1025.33-37.83 1018.88-32.83L1018.88-32.83L1039.10-13.07L1039.10-13.07Q1045.38-6.97 1047.23-6.16L1047.23-6.16L1047.23-6.16Q1048.57-5.52 1049.97-5.52L1049.97-5.52L1049.97-5.52Q1050.55-5.52 1051.19-5.64L1051.19-5.64L1051.19-5.64Q1051.65-5.75 1052.06-5.75L1052.06-5.75L1052.06-5.75Q1053.22-5.75 1053.63-4.88L1053.63-4.88L1053.63-4.88Q1053.74-4.53 1053.74-4.30L1053.74-4.30L1053.74-4.30Q1053.74-3.72 1053.16-3.49L1053.16-3.49L1049.44-1.69L1049.44-1.69Q1046.42-0.35 1043.81-0.35L1043.81-0.35L1043.81-0.35Q1042.12-0.35 1040.61-0.99L1040.61-0.99L1040.61-0.99Q1036.83-2.50 1033.70-5.58L1033.70-5.58L1011.56-27.14L1011.56-27.14Q1011.09-26.67 1009.81-25.74ZM1101.51-0.76L1101.51-5.06L1085.53 0.81L1085.53 0.81Q1083.67 1.45 1082.45 1.45L1082.45 1.45L1080.06 1.45L1080.06 1.45Q1071.81 1.05 1065.83-5.29L1065.83-5.29L1065.83-5.29Q1059.84-11.62 1059.03-20.86L1059.03-20.86L1059.03-20.86Q1058.80-23.30 1058.80-25.57L1058.80-25.57L1058.80-25.57Q1058.80-28.59 1059.20-31.44L1059.20-31.44L1059.20-31.44Q1059.90-36.37 1063.04-41.31L1063.04-41.31L1063.04-41.31Q1064.55-43.87 1068.21-46.66L1068.21-46.66L1068.21-46.66Q1069.49-47.53 1071.06-48.23L1071.06-48.23L1071.06-48.23Q1075.71-49.97 1080.38-51.71L1080.38-51.71L1080.38-51.71Q1085.06-53.46 1089.77-55.20L1089.77-55.20L1089.77-55.20Q1090.76-55.55 1091.63-55.55L1091.63-55.55L1091.92-55.55L1091.92-55.55Q1095.64-55.37 1100.92-53.69L1100.92-53.69L1100.92-53.69Q1101.39-53.52 1101.51-53.46L1101.51-53.46L1101.51-53.46Q1102.78-52.93 1104.64-52.29L1104.64-52.29L1104.64-52.29Q1105.40-52.06 1106.04-52.06L1106.04-52.06L1106.04-52.06Q1106.97-52.06 1107.66-52.59L1107.66-52.59L1107.66-52.59Q1108.88-53.63 1109.41-54.33L1109.41-54.33L1109.41-54.33Q1109.70-54.74 1110.16-54.74L1110.16-54.74L1110.16-54.74Q1110.45-54.74 1110.74-54.62L1110.74-54.62L1110.74-54.62Q1112.02-54.15 1112.02-53.46L1112.02-53.46L1112.02-8.48L1112.02-8.48Q1112.02-4.71 1114.93-3.69L1114.93-3.69L1114.93-3.69Q1117.83-2.67 1117.83-1.22L1117.83-1.22L1117.83-1.22Q1117.83 0 1116.61 0L1116.61 0L1102.49 0L1102.49 0Q1101.51 0 1101.51-0.76L1101.51-0.76ZM1101.51-8.48L1101.51-44.68L1101.51-44.68Q1099.12-46.89 1095.23-48.78L1095.23-48.78L1095.23-48.78Q1091.34-50.67 1088.32-50.78L1088.32-50.78L1088.08-50.78L1088.08-50.78Q1086.92-50.78 1085.76-50.32L1085.76-50.32L1085.76-50.32Q1083.67-49.56 1081.60-48.78L1081.60-48.78L1081.60-48.78Q1079.54-48.00 1077.45-47.24L1077.45-47.24L1077.45-47.24Q1076.00-46.66 1075.13-45.73L1075.13-45.73L1075.13-45.73Q1071.52-41.89 1070.30-36.43L1070.30-36.43L1070.30-36.43Q1069.31-32.31 1069.31-28.24L1069.31-28.24L1069.31-28.24Q1069.31-26.96 1069.43-25.62L1069.43-25.62L1069.43-25.62Q1070.07-17.26 1073.96-12.03L1073.96-12.03L1073.96-12.03Q1077.86-6.62 1083.73-5.00L1083.73-5.00L1083.73-5.00Q1085.93-4.36 1088.20-4.36L1088.20-4.36L1088.20-4.36Q1088.90-4.36 1089.65-4.42L1089.65-4.42L1089.65-4.42Q1090.93-4.53 1092.67-5.17L1092.67-5.17L1092.67-5.17Q1094.01-5.64 1096.86-6.71L1096.86-6.71L1096.86-6.71Q1099.70-7.79 1101.51-8.48L1101.51-8.48ZM1145.72-34.57L1145.72-34.57L1145.72-8.48L1145.72-8.48Q1145.72-4.71 1148.60-3.69L1148.60-3.69L1148.60-3.69Q1151.48-2.67 1151.48-1.22L1151.48-1.22L1151.48-1.22Q1151.48 0 1150.31 0L1150.31 0L1130.62 0L1130.62 0Q1129.40 0 1129.40-1.22L1129.40-1.22L1129.40-1.22Q1129.40-2.67 1132.30-3.69L1132.30-3.69L1132.30-3.69Q1135.21-4.71 1135.21-8.48L1135.21-8.48L1135.21-45.67L1135.21-45.67Q1135.21-49.33 1132.30-50.38L1132.30-50.38L1132.30-50.38Q1129.40-51.42 1129.40-52.93L1129.40-52.93L1129.40-52.93Q1129.40-54.15 1130.62-54.15L1130.62-54.15L1130.62-54.15Q1134.45-54.33 1138.20-55.35L1138.20-55.35L1138.20-55.35Q1141.95-56.36 1145.72-57.64L1145.72-57.64L1145.72-49.97L1153.80-53.05L1153.80-53.05Q1158.27-54.74 1160.77-55.55L1160.77-55.55L1160.77-55.55Q1161.53-55.78 1162.57-55.78L1162.57-55.78L1162.57-55.78Q1164.72-55.78 1168.04-54.62L1168.04-54.62L1166.76-40.03L1164.08-40.03L1164.08-40.03Q1161.82-48.52 1155.37-48.52L1155.37-48.52L1155.37-48.52Q1154.73-48.52 1154.09-48.46L1154.09-48.46L1154.09-48.46Q1149.67-47.94 1147.79-43.96L1147.79-43.96L1147.79-43.96Q1145.90-39.98 1145.72-34.57ZM1216.90-0.76L1216.90-5.06L1200.92 0.81L1200.92 0.81Q1199.06 1.45 1197.84 1.45L1197.84 1.45L1195.46 1.45L1195.46 1.45Q1187.21 1.05 1181.23-5.29L1181.23-5.29L1181.23-5.29Q1175.24-11.62 1174.43-20.86L1174.43-20.86L1174.43-20.86Q1174.20-23.30 1174.20-25.57L1174.20-25.57L1174.20-25.57Q1174.20-28.59 1174.60-31.44L1174.60-31.44L1174.60-31.44Q1175.30-36.37 1178.44-41.31L1178.44-41.31L1178.44-41.31Q1179.95-43.87 1183.61-46.66L1183.61-46.66L1183.61-46.66Q1184.89-47.53 1186.46-48.23L1186.46-48.23L1186.46-48.23Q1191.10-49.97 1195.78-51.71L1195.78-51.71L1195.78-51.71Q1200.46-53.46 1205.17-55.20L1205.17-55.20L1205.17-55.20Q1206.15-55.55 1207.02-55.55L1207.02-55.55L1207.32-55.55L1207.32-55.55Q1211.03-55.37 1216.32-53.69L1216.32-53.69L1216.32-53.69Q1216.79-53.52 1216.90-53.46L1216.90-53.46L1216.90-53.46Q1218.18-52.93 1220.04-52.29L1220.04-52.29L1220.04-52.29Q1220.80-52.06 1221.44-52.06L1221.44-52.06L1221.44-52.06Q1222.36-52.06 1223.06-52.59L1223.06-52.59L1223.06-52.59Q1224.28-53.63 1224.81-54.33L1224.81-54.33L1224.81-54.33Q1225.10-54.74 1225.56-54.74L1225.56-54.74L1225.56-54.74Q1225.85-54.74 1226.14-54.62L1226.14-54.62L1226.14-54.62Q1227.42-54.15 1227.42-53.46L1227.42-53.46L1227.42-8.48L1227.42-8.48Q1227.42-4.71 1230.33-3.69L1230.33-3.69L1230.33-3.69Q1233.23-2.67 1233.23-1.22L1233.23-1.22L1233.23-1.22Q1233.23 0 1232.01 0L1232.01 0L1217.89 0L1217.89 0Q1216.90 0 1216.90-0.76L1216.90-0.76ZM1216.90-8.48L1216.90-44.68L1216.90-44.68Q1214.52-46.89 1210.63-48.78L1210.63-48.78L1210.63-48.78Q1206.73-50.67 1203.71-50.78L1203.71-50.78L1203.48-50.78L1203.48-50.78Q1202.32-50.78 1201.16-50.32L1201.16-50.32L1201.16-50.32Q1199.06-49.56 1197.00-48.78L1197.00-48.78L1197.00-48.78Q1194.94-48.00 1192.85-47.24L1192.85-47.24L1192.85-47.24Q1191.39-46.66 1190.52-45.73L1190.52-45.73L1190.52-45.73Q1186.92-41.89 1185.70-36.43L1185.70-36.43L1185.70-36.43Q1184.71-32.31 1184.71-28.24L1184.71-28.24L1184.71-28.24Q1184.71-26.96 1184.83-25.62L1184.83-25.62L1184.83-25.62Q1185.47-17.26 1189.36-12.03L1189.36-12.03L1189.36-12.03Q1193.25-6.62 1199.12-5.00L1199.12-5.00L1199.12-5.00Q1201.33-4.36 1203.60-4.36L1203.60-4.36L1203.60-4.36Q1204.29-4.36 1205.05-4.42L1205.05-4.42L1205.05-4.42Q1206.33-4.53 1208.07-5.17L1208.07-5.17L1208.07-5.17Q1209.41-5.64 1212.25-6.71L1212.25-6.71L1212.25-6.71Q1215.10-7.79 1216.90-8.48L1216.90-8.48ZM1258.74-57.64L1258.74-49.56L1258.74-49.56Q1261.93-50.78 1264.38-51.71L1264.38-51.71L1264.38-51.71Q1266.82-52.64 1269.02-53.40L1269.02-53.40L1269.02-53.40Q1274.37-55.26 1280.12-55.84L1280.12-55.84L1280.12-55.84Q1280.82-55.90 1281.57-55.90L1281.57-55.90L1281.57-55.90Q1286.46-55.90 1290.87-52.59L1290.87-52.59L1290.87-52.59Q1297.90-47.18 1297.90-29.40L1297.90-29.40L1297.90-8.48L1297.90-8.48Q1297.90-4.71 1300.81-3.69L1300.81-3.69L1300.81-3.69Q1303.71-2.67 1303.71-1.22L1303.71-1.22L1303.71-1.22Q1303.71 0 1302.55 0L1302.55 0L1288.43 0L1288.43 0Q1287.44 0 1287.44-0.76L1287.44-0.76L1287.44-29.40L1287.44-29.40Q1287.44-42.13 1282.16-47.30L1282.16-47.30L1282.16-47.30Q1278.79-50.61 1273.90-50.61L1273.90-50.61L1273.90-50.61Q1271.12-50.61 1267.80-49.51L1267.80-49.51L1267.80-49.51Q1266.52-49.04 1264.58-48.31L1264.58-48.31L1264.58-48.31Q1262.63-47.59 1261.24-47.07L1261.24-47.07L1261.24-47.07Q1259.84-46.54 1258.74-46.14L1258.74-46.14L1258.74-8.48L1258.74-8.48Q1258.74-4.71 1261.64-3.69L1261.64-3.69L1261.64-3.69Q1264.55-2.67 1264.55-1.22L1264.55-1.22L1264.55-1.22Q1264.55 0 1263.39 0L1263.39 0L1243.69 0L1243.69 0Q1242.47 0 1242.47-1.22L1242.47-1.22L1242.47-1.22Q1242.47-2.67 1245.37-3.69L1245.37-3.69L1245.37-3.69Q1248.28-4.71 1248.28-8.48L1248.28-8.48L1248.28-45.67L1248.28-45.67Q1248.28-49.33 1245.37-50.38L1245.37-50.38L1245.37-50.38Q1242.47-51.42 1242.47-52.93L1242.47-52.93L1242.47-52.93Q1242.47-54.15 1243.69-54.15L1243.69-54.15L1243.69-54.15Q1247.52-54.33 1251.27-55.35L1251.27-55.35L1251.27-55.35Q1255.02-56.36 1258.74-57.64L1258.74-57.64Z" fill="url(#editing-glowing-gradient)"></path></g></g><style>text {
  font-size: 64px;
  font-family: Arial Black;
  dominant-baseline: central;
  text-anchor: middle;
}</style></svg>