<svg width="1005.790625px" height="135.8px" xmlns="http://www.w3.org/2000/svg" viewBox="-252.8953125 7.099999999999994 1005.790625 135.8" style="background: rgb(0, 0, 0);" preserveAspectRatio="xMidYMid"><defs><linearGradient id="editing-glowing-gradient" x1="0" x2="1" y1="0.5000000000000001" y2="0.4999999999999999"><stop offset="0" stop-color="#de3fce"></stop><stop offset="1" stop-color="#ff4773"></stop></linearGradient><filter id="editing-glowing" x="-100%" y="-100%" width="300%" height="300%"><feGaussianBlur in="SourceGraphic" result="blur" stdDeviation="25.5"></feGaussianBlur><feMerge><feMergeNode in="blur"></feMergeNode><feMergeNode in="SourceGraphic"></feMergeNode></feMerge></filter></defs><g filter="url(#editing-glowing)"><g transform="translate(-112.760005235672, 107.81000518798828)"><path d="M15.79-30.87L15.79-30.87L15.79-30.87Q20.53-30.62 24.75-28.00L24.75-28.00L24.07-22.37L24.07-22.37Q24.01-21.88 23.56-21.88L23.56-21.88L23.46-21.88L23.46-21.88Q23.07-21.91 22.75-22.66L22.75-22.66L22.75-22.66Q21.59-25.07 19.37-26.70L19.37-26.70L19.37-26.70Q17.14-28.33 14.57-28.42L14.57-28.42L14.44-28.42L14.44-28.42Q12.44-28.42 10.54-27.42L10.54-27.42L10.54-27.42Q8.54-26.39 8.09-24.27L8.09-24.27L8.09-24.27Q7.93-23.56 7.93-22.98L7.93-22.98L7.93-22.98Q7.93-20.95 9.73-20.08L9.73-20.08L9.73-20.08Q12.02-18.92 15.05-18.24L15.05-18.24L15.05-18.24Q19.21-17.31 22.61-15.73L22.61-15.73L22.61-15.73Q26.01-14.15 26.33-9.12L26.33-9.12L26.33-8.80L26.33-8.80Q26.33-6.41 24.49-4.03L24.49-4.03L24.49-4.03Q22.49-1.45 18.72-0.13L18.72-0.13L18.72-0.13Q16.37 0.64 13.50 0.74L13.50 0.74L12.63 0.74L12.63 0.74Q8.67 0.74 5.06-0.29L5.06-0.29L2.45-7.38L2.55-8.02L2.55-8.02Q2.58-8.51 3.13-8.51L3.13-8.51L3.19-8.51L3.19-8.51Q3.51-8.44 3.87-7.73L3.87-7.73L3.87-7.73Q5.35-4.54 7.49-3.21L7.49-3.21L7.49-3.21Q9.64-1.87 12.92-1.77L12.92-1.77L13.31-1.77L13.31-1.77Q15.60-1.77 18.34-2.84L18.34-2.84L18.34-2.84Q21.30-4.00 21.43-7.03L21.43-7.03L21.43-7.22L21.43-7.22Q21.43-10.70 18.14-11.63L18.14-11.63L18.14-11.63Q14.73-12.60 12.15-13.34L12.15-13.34L12.15-13.34Q8.96-14.21 6.16-16.11L6.16-16.11L6.16-16.11Q3.38-17.98 3.38-21.66L3.38-21.66L3.38-21.82L3.38-21.82Q3.42-26.81 7.25-28.94L7.25-28.94L7.25-28.94Q10.76-30.91 15.02-30.91L15.02-30.91L15.02-30.91Q15.40-30.91 15.79-30.87ZM40.15-25.59L40.15-4.71L40.15-4.71Q40.15-2.61 41.77-2.05L41.77-2.05L41.77-2.05Q43.38-1.48 43.38-0.68L43.38-0.68L43.38-0.68Q43.38 0 42.73 0L42.73 0L31.81 0L31.81 0Q31.13 0 31.13-0.68L31.13-0.68L31.13-0.68Q31.13-1.48 32.74-2.05L32.74-2.05L32.74-2.05Q34.35-2.61 34.35-4.71L34.35-4.71L34.35-40.51L34.35-40.51Q34.35-42.57 32.74-43.15L32.74-43.15L32.74-43.15Q31.13-43.73 31.13-44.57L31.13-44.57L31.13-44.57Q31.13-45.25 31.81-45.25L31.81-45.25L31.81-45.25Q33.93-45.34 36.01-45.89L36.01-45.89L36.01-45.89Q38.09-46.44 40.15-47.15L40.15-47.15L40.15-27.49L40.15-27.49Q41.93-28.17 43.28-28.68L43.28-28.68L43.28-28.68Q44.63-29.20 45.86-29.62L45.86-29.62L45.86-29.62Q48.82-30.65 52.01-30.97L52.01-30.97L52.01-30.97Q52.40-31.00 52.82-31.00L52.82-31.00L52.82-31.00Q55.53-31.00 57.98-29.17L57.98-29.17L57.98-29.17Q61.88-26.17 61.88-16.31L61.88-16.31L61.88-4.71L61.88-4.71Q61.88-2.61 63.49-2.05L63.49-2.05L63.49-2.05Q65.10-1.48 65.10-0.68L65.10-0.68L65.10-0.68Q65.10 0 64.45 0L64.45 0L56.62 0L56.62 0Q56.07 0 56.07-0.42L56.07-0.42L56.07-16.31L56.07-16.31Q56.07-23.36 53.14-26.23L53.14-26.23L53.14-26.23Q51.27-28.07 48.57-28.07L48.57-28.07L48.57-28.07Q47.02-28.07 45.18-27.46L45.18-27.46L45.18-27.46Q44.47-27.20 43.39-26.80L43.39-26.80L43.39-26.80Q42.31-26.39 41.54-26.10L41.54-26.10L41.54-26.10Q40.77-25.81 40.15-25.59L40.15-25.59ZM93.07-0.42L93.07-2.80L84.21 0.45L84.21 0.45Q83.18 0.81 82.50 0.81L82.50 0.81L81.18 0.81L81.18 0.81Q76.60 0.58 73.28-2.93L73.28-2.93L73.28-2.93Q69.96-6.45 69.51-11.57L69.51-11.57L69.51-11.57Q69.38-12.92 69.38-14.18L69.38-14.18L69.38-14.18Q69.38-15.86 69.61-17.43L69.61-17.43L69.61-17.43Q70.00-20.17 71.74-22.91L71.74-22.91L71.74-22.91Q72.57-24.33 74.60-25.88L74.60-25.88L74.60-25.88Q75.31-26.36 76.18-26.75L76.18-26.75L76.18-26.75Q78.76-27.71 81.36-28.68L81.36-28.68L81.36-28.68Q83.95-29.65 86.56-30.62L86.56-30.62L86.56-30.62Q87.11-30.81 87.59-30.81L87.59-30.81L87.75-30.81L87.75-30.81Q89.82-30.71 92.75-29.78L92.75-29.78L92.75-29.78Q93.01-29.68 93.07-29.65L93.07-29.65L93.07-29.65Q93.78-29.36 94.81-29.00L94.81-29.00L94.81-29.00Q95.23-28.88 95.58-28.88L95.58-28.88L95.58-28.88Q96.10-28.88 96.49-29.17L96.49-29.17L96.49-29.17Q97.16-29.75 97.45-30.13L97.45-30.13L97.45-30.13Q97.61-30.36 97.87-30.36L97.87-30.36L97.87-30.36Q98.03-30.36 98.19-30.29L98.19-30.29L98.19-30.29Q98.90-30.04 98.90-29.65L98.90-29.65L98.90-4.71L98.90-4.71Q98.90-2.61 100.51-2.05L100.51-2.05L100.51-2.05Q102.13-1.48 102.13-0.68L102.13-0.68L102.13-0.68Q102.13 0 101.45 0L101.45 0L93.62 0L93.62 0Q93.07 0 93.07-0.42L93.07-0.42ZM93.07-4.71L93.07-24.78L93.07-24.78Q91.75-26.01 89.59-27.05L89.59-27.05L89.59-27.05Q87.43-28.10 85.75-28.17L85.75-28.17L85.63-28.17L85.63-28.17Q84.98-28.17 84.34-27.91L84.34-27.91L84.34-27.91Q83.18-27.49 82.03-27.05L82.03-27.05L82.03-27.05Q80.89-26.62 79.73-26.20L79.73-26.20L79.73-26.20Q78.92-25.88 78.44-25.36L78.44-25.36L78.44-25.36Q76.44-23.24 75.76-20.21L75.76-20.21L75.76-20.21Q75.22-17.92 75.22-15.66L75.22-15.66L75.22-15.66Q75.22-14.95 75.28-14.21L75.28-14.21L75.28-14.21Q75.64-9.57 77.79-6.67L77.79-6.67L77.79-6.67Q79.95-3.67 83.21-2.77L83.21-2.77L83.21-2.77Q84.43-2.42 85.69-2.42L85.69-2.42L85.69-2.42Q86.08-2.42 86.50-2.45L86.50-2.45L86.50-2.45Q87.21-2.51 88.17-2.87L88.17-2.87L88.17-2.87Q88.91-3.13 90.49-3.72L90.49-3.72L90.49-3.72Q92.07-4.32 93.07-4.71L93.07-4.71ZM116.27-31.97L116.27-27.49L116.27-27.49Q118.05-28.17 119.40-28.68L119.40-28.68L119.40-28.68Q120.75-29.20 121.98-29.62L121.98-29.62L121.98-29.62Q124.94-30.65 128.13-30.97L128.13-30.97L128.13-30.97Q128.52-31.00 128.94-31.00L128.94-31.00L128.94-31.00Q131.65-31.00 134.09-29.17L134.09-29.17L134.09-29.17Q137.99-26.17 137.99-16.31L137.99-16.31L137.99-4.71L137.99-4.71Q137.99-2.61 139.61-2.05L139.61-2.05L139.61-2.05Q141.22-1.48 141.22-0.68L141.22-0.68L141.22-0.68Q141.22 0 140.57 0L140.57 0L132.74 0L132.74 0Q132.19 0 132.19-0.42L132.19-0.42L132.19-16.31L132.19-16.31Q132.19-23.36 129.26-26.23L129.26-26.23L129.26-26.23Q127.39-28.07 124.68-28.07L124.68-28.07L124.68-28.07Q123.14-28.07 121.30-27.46L121.30-27.46L121.30-27.46Q120.59-27.20 119.51-26.80L119.51-26.80L119.51-26.80Q118.43-26.39 117.66-26.10L117.66-26.10L117.66-26.10Q116.89-25.81 116.27-25.59L116.27-25.59L116.27-4.71L116.27-4.71Q116.27-2.61 117.88-2.05L117.88-2.05L117.88-2.05Q119.50-1.48 119.50-0.68L119.50-0.68L119.50-0.68Q119.50 0 118.85 0L118.85 0L107.93 0L107.93 0Q107.25 0 107.25-0.68L107.25-0.68L107.25-0.68Q107.25-1.48 108.86-2.05L108.86-2.05L108.86-2.05Q110.47-2.61 110.47-4.71L110.47-4.71L110.47-25.33L110.47-25.33Q110.47-27.36 108.86-27.94L108.86-27.94L108.86-27.94Q107.25-28.52 107.25-29.36L107.25-29.36L107.25-29.36Q107.25-30.04 107.93-30.04L107.93-30.04L107.93-30.04Q110.05-30.13 112.13-30.70L112.13-30.70L112.13-30.70Q114.21-31.26 116.27-31.97L116.27-31.97ZM155.20-31.97L155.20-27.75L155.20-27.75Q156.72-28.33 157.93-28.78L157.93-28.78L157.93-28.78Q159.13-29.23 160.23-29.62L160.23-29.62L160.23-29.62Q163.20-30.65 166.39-30.97L166.39-30.97L166.39-30.97Q166.77-31.00 167.19-31.00L167.19-31.00L167.19-31.00Q169.90-31.00 172.35-29.17L172.35-29.17L172.35-29.17Q173.19-28.49 173.70-27.81L173.70-27.81L173.70-27.81Q175.15-28.36 176.33-28.79L176.33-28.79L176.33-28.79Q177.50-29.23 178.57-29.62L178.57-29.62L178.57-29.62Q181.53-30.65 184.69-30.97L184.69-30.97L184.69-30.97Q185.11-31.00 185.53-31.00L185.53-31.00L185.53-31.00Q188.20-31.00 190.65-29.17L190.65-29.17L190.65-29.17Q194.58-26.17 194.58-16.31L194.58-16.31L194.58-4.71L194.58-4.71Q194.58-2.61 196.20-2.05L196.20-2.05L196.20-2.05Q197.81-1.48 197.81-0.68L197.81-0.68L197.81-0.68Q197.81 0 197.13 0L197.13 0L189.30 0L189.30 0Q188.78 0 188.78-0.42L188.78-0.42L188.78-16.31L188.78-16.31Q188.78-23.36 185.85-26.23L185.85-26.23L185.85-26.23Q183.98-28.07 181.27-28.07L181.27-28.07L181.27-28.07Q179.73-28.07 177.89-27.46L177.89-27.46L177.89-27.46Q177.25-27.23 176.33-26.89L176.33-26.89L176.33-26.89Q175.41-26.55 174.64-26.26L174.64-26.26L174.64-26.26Q176.25-22.95 176.25-16.31L176.25-16.31L176.25-4.71L176.25-4.71Q176.25-2.61 177.86-2.05L177.86-2.05L177.86-2.05Q179.47-1.48 179.47-0.68L179.47-0.68L179.47-0.68Q179.47 0 178.83 0L178.83 0L167.90 0L167.90 0Q167.22 0 167.22-0.68L167.22-0.68L167.22-0.68Q167.22-1.48 168.83-2.05L168.83-2.05L168.83-2.05Q170.45-2.61 170.45-4.71L170.45-4.71L170.45-16.31L170.45-16.31Q170.45-23.36 167.51-26.23L167.51-26.23L167.51-26.23Q165.64-28.07 162.94-28.07L162.94-28.07L162.94-28.07Q161.39-28.07 159.55-27.46L159.55-27.46L159.55-27.46Q158.43-27.07 157.35-26.65L157.35-26.65L157.35-26.65Q156.27-26.23 155.20-25.85L155.20-25.85L155.20-4.71L155.20-4.71Q155.20-2.61 156.81-2.05L156.81-2.05L156.81-2.05Q158.43-1.48 158.43-0.68L158.43-0.68L158.43-0.68Q158.43 0 157.78 0L157.78 0L146.86 0L146.86 0Q146.18 0 146.18-0.68L146.18-0.68L146.18-0.68Q146.18-1.48 147.79-2.05L147.79-2.05L147.79-2.05Q149.40-2.61 149.40-4.71L149.40-4.71L149.40-25.33L149.40-25.33Q149.40-27.36 147.79-27.94L147.79-27.94L147.79-27.94Q146.18-28.52 146.18-29.36L146.18-29.36L146.18-29.36Q146.18-30.04 146.86-30.04L146.86-30.04L146.86-30.04Q148.98-30.13 151.06-30.70L151.06-30.70L151.06-30.70Q153.14-31.26 155.20-31.97L155.20-31.97ZM226.58-0.42L226.58-2.80L217.72 0.45L217.72 0.45Q216.69 0.81 216.01 0.81L216.01 0.81L214.69 0.81L214.69 0.81Q210.12 0.58 206.80-2.93L206.80-2.93L206.80-2.93Q203.48-6.45 203.03-11.57L203.03-11.57L203.03-11.57Q202.90-12.92 202.90-14.18L202.90-14.18L202.90-14.18Q202.90-15.86 203.12-17.43L203.12-17.43L203.12-17.43Q203.51-20.17 205.25-22.91L205.25-22.91L205.25-22.91Q206.09-24.33 208.12-25.88L208.12-25.88L208.12-25.88Q208.83-26.36 209.70-26.75L209.70-26.75L209.70-26.75Q212.28-27.71 214.87-28.68L214.87-28.68L214.87-28.68Q217.46-29.65 220.08-30.62L220.08-30.62L220.08-30.62Q220.62-30.81 221.11-30.81L221.11-30.81L221.27-30.81L221.27-30.81Q223.33-30.71 226.26-29.78L226.26-29.78L226.26-29.78Q226.52-29.68 226.58-29.65L226.58-29.65L226.58-29.65Q227.29-29.36 228.33-29.00L228.33-29.00L228.33-29.00Q228.74-28.88 229.10-28.88L229.10-28.88L229.10-28.88Q229.61-28.88 230.00-29.17L230.00-29.17L230.00-29.17Q230.68-29.75 230.97-30.13L230.97-30.13L230.97-30.13Q231.13-30.36 231.39-30.36L231.39-30.36L231.39-30.36Q231.55-30.36 231.71-30.29L231.71-30.29L231.71-30.29Q232.42-30.04 232.42-29.65L232.42-29.65L232.42-4.71L232.42-4.71Q232.42-2.61 234.03-2.05L234.03-2.05L234.03-2.05Q235.64-1.48 235.64-0.68L235.64-0.68L235.64-0.68Q235.64 0 234.96 0L234.96 0L227.13 0L227.13 0Q226.58 0 226.58-0.42L226.58-0.42ZM226.58-4.71L226.58-24.78L226.58-24.78Q225.26-26.01 223.10-27.05L223.10-27.05L223.10-27.05Q220.95-28.10 219.27-28.17L219.27-28.17L219.14-28.17L219.14-28.17Q218.50-28.17 217.85-27.91L217.85-27.91L217.85-27.91Q216.69-27.49 215.55-27.05L215.55-27.05L215.55-27.05Q214.40-26.62 213.24-26.20L213.24-26.20L213.24-26.20Q212.44-25.88 211.95-25.36L211.95-25.36L211.95-25.36Q209.96-23.24 209.28-20.21L209.28-20.21L209.28-20.21Q208.73-17.92 208.73-15.66L208.73-15.66L208.73-15.66Q208.73-14.95 208.80-14.21L208.80-14.21L208.80-14.21Q209.15-9.57 211.31-6.67L211.31-6.67L211.31-6.67Q213.47-3.67 216.72-2.77L216.72-2.77L216.72-2.77Q217.95-2.42 219.21-2.42L219.21-2.42L219.21-2.42Q219.59-2.42 220.01-2.45L220.01-2.45L220.01-2.45Q220.72-2.51 221.69-2.87L221.69-2.87L221.69-2.87Q222.43-3.13 224.01-3.72L224.01-3.72L224.01-3.72Q225.59-4.32 226.58-4.71L226.58-4.71ZM244.79-8.06L244.79-27.23L244.79-27.23Q243.57-27.20 241.12-27.07L241.12-27.07L240.96-27.07L240.96-27.07Q240.35-27.07 240.31-27.71L240.31-27.71L240.31-27.78L240.31-27.78Q240.31-28.29 240.93-28.58L240.93-28.58L240.93-28.58Q241.57-28.88 243.60-29.97L243.60-29.97L243.60-29.97Q244.08-30.23 244.54-30.42L244.54-30.42L244.54-30.42Q244.63-30.45 244.79-30.45L244.79-30.45L244.79-35.96L244.79-35.96Q244.79-37.58 245.45-38.20L245.45-38.20L245.45-38.20Q246.11-38.83 248.50-39.96L248.50-39.96L248.50-39.96Q249.37-40.38 249.88-40.38L249.88-40.38L249.88-40.38Q250.63-40.38 250.63-39.54L250.63-39.54L250.63-30.55L258.30-30.71L258.33-30.71L258.33-30.71Q258.81-30.71 258.81-29.87L258.81-29.87L258.81-29.87Q258.81-29.42 258.68-28.78L258.68-28.78L258.68-28.78Q258.36-27.26 257.23-27.26L257.23-27.26L250.63-27.30L250.63-7.09L250.63-7.09Q250.63-4.16 252.67-2.71L252.67-2.71L252.67-2.71Q254.72-1.26 256.17-1.06L256.17-1.06L256.17-0.03L256.17-0.03Q251.37-0.03 248.08-0.93L248.08-0.93L248.08-0.93Q244.79-1.84 244.79-8.06L244.79-8.06ZM271.77-25.59L271.77-4.71L271.77-4.71Q271.77-2.61 273.38-2.05L273.38-2.05L273.38-2.05Q274.99-1.48 274.99-0.68L274.99-0.68L274.99-0.68Q274.99 0 274.34 0L274.34 0L263.42 0L263.42 0Q262.74 0 262.74-0.68L262.74-0.68L262.74-0.68Q262.74-1.48 264.35-2.05L264.35-2.05L264.35-2.05Q265.97-2.61 265.97-4.71L265.97-4.71L265.97-40.51L265.97-40.51Q265.97-42.57 264.35-43.15L264.35-43.15L264.35-43.15Q262.74-43.73 262.74-44.57L262.74-44.57L262.74-44.57Q262.74-45.25 263.42-45.25L263.42-45.25L263.42-45.25Q265.55-45.34 267.63-45.89L267.63-45.89L267.63-45.89Q269.70-46.44 271.77-47.15L271.77-47.15L271.77-27.49L271.77-27.49Q273.54-28.17 274.89-28.68L274.89-28.68L274.89-28.68Q276.25-29.20 277.47-29.62L277.47-29.62L277.47-29.62Q280.44-30.65 283.63-30.97L283.63-30.97L283.63-30.97Q284.01-31.00 284.43-31.00L284.43-31.00L284.43-31.00Q287.14-31.00 289.59-29.17L289.59-29.17L289.59-29.17Q293.49-26.17 293.49-16.31L293.49-16.31L293.49-4.71L293.49-4.71Q293.49-2.61 295.10-2.05L295.10-2.05L295.10-2.05Q296.71-1.48 296.71-0.68L296.71-0.68L296.71-0.68Q296.71 0 296.07 0L296.07 0L288.23 0L288.23 0Q287.69 0 287.69-0.42L287.69-0.42L287.69-16.31L287.69-16.31Q287.69-23.36 284.75-26.23L284.75-26.23L284.75-26.23Q282.88-28.07 280.18-28.07L280.18-28.07L280.18-28.07Q278.63-28.07 276.79-27.46L276.79-27.46L276.79-27.46Q276.08-27.20 275.01-26.80L275.01-26.80L275.01-26.80Q273.93-26.39 273.15-26.10L273.15-26.10L273.15-26.10Q272.38-25.81 271.77-25.59L271.77-25.59ZM308.73-45.12L308.73-45.12L308.73-45.12Q312.24-45.12 312.24-41.57L312.24-41.57L312.24-41.57Q312.24-38.00 308.73-38.00L308.73-38.00L308.73-38.00Q305.22-38.00 305.22-41.57L305.22-41.57L305.22-41.57Q305.22-45.12 308.73-45.12ZM311.63-31.97L311.63-4.71L311.63-4.71Q311.63-2.61 313.24-2.05L313.24-2.05L313.24-2.05Q314.85-1.48 314.85-0.68L314.85-0.68L314.85-0.68Q314.85 0 314.21 0L314.21 0L303.28 0L303.28 0Q302.61 0 302.61-0.68L302.61-0.68L302.61-0.68Q302.61-1.48 304.22-2.05L304.22-2.05L304.22-2.05Q305.83-2.61 305.83-4.71L305.83-4.71L305.83-25.33L305.83-25.33Q305.83-27.36 304.22-27.94L304.22-27.94L304.22-27.94Q302.61-28.52 302.61-29.36L302.61-29.36L302.61-29.36Q302.61-30.04 303.28-30.04L303.28-30.04L303.28-30.04Q305.41-30.13 307.49-30.70L307.49-30.70L307.49-30.70Q309.57-31.26 311.63-31.97L311.63-31.97ZM361.49-6.41L361.52-6.41L361.52-24.78L361.52-24.78Q360.20-26.01 358.04-27.05L358.04-27.05L358.04-27.05Q355.88-28.10 354.20-28.17L354.20-28.17L354.07-28.17L354.07-28.17Q353.43-28.17 352.78-27.91L352.78-27.91L352.78-27.91Q351.62-27.49 350.48-27.05L350.48-27.05L350.48-27.05Q349.34-26.62 348.18-26.20L348.18-26.20L348.18-26.20Q347.37-25.88 346.89-25.36L346.89-25.36L346.89-25.36Q344.89-23.24 344.21-20.21L344.21-20.21L344.21-20.21Q343.66-17.92 343.66-15.66L343.66-15.66L343.66-15.66Q343.66-14.95 343.73-14.21L343.73-14.21L343.73-14.21Q344.08-9.57 346.24-6.67L346.24-6.67L346.24-6.67Q348.40-3.67 351.66-2.77L351.66-2.77L351.66-2.77Q352.88-2.42 354.14-2.42L354.14-2.42L354.14-2.42Q354.52-2.42 354.94-2.45L354.94-2.45L354.94-2.45Q355.65-2.51 356.62-2.87L356.62-2.87L356.62-2.87Q357.36-3.13 358.92-3.71L358.92-3.71L358.92-3.71Q360.49-4.29 361.49-4.67L361.49-4.67L361.49-6.41ZM361.52 7.64L361.49-2.80L352.66 0.45L352.66 0.45Q351.62 0.81 350.95 0.81L350.95 0.81L349.63 0.81L349.63 0.81Q345.05 0.58 341.73-2.93L341.73-2.93L341.73-2.93Q338.41-6.45 337.96-11.57L337.96-11.57L337.96-11.57Q337.83-12.92 337.83-14.18L337.83-14.18L337.83-14.18Q337.83-15.86 338.06-17.43L338.06-17.43L338.06-17.43Q338.44-20.17 340.18-22.91L340.18-22.91L340.18-22.91Q341.02-24.33 343.05-25.88L343.05-25.88L343.05-25.88Q343.76-26.36 344.63-26.75L344.63-26.75L344.63-26.75Q347.21-27.71 349.80-28.68L349.80-28.68L349.80-28.68Q352.40-29.65 355.01-30.62L355.01-30.62L355.01-30.62Q355.56-30.81 356.04-30.81L356.04-30.81L356.20-30.81L356.20-30.81Q358.26-30.71 361.20-29.78L361.20-29.78L361.20-29.78Q361.45-29.68 361.52-29.65L361.52-29.65L361.52-29.65Q362.23-29.36 363.26-29.00L363.26-29.00L363.26-29.00Q363.68-28.88 364.03-28.88L364.03-28.88L364.03-28.88Q364.55-28.88 364.93-29.17L364.93-29.17L364.93-29.17Q365.61-29.75 365.90-30.13L365.90-30.13L365.90-30.13Q366.06-30.36 366.32-30.36L366.32-30.36L366.32-30.36Q366.48-30.36 366.64-30.29L366.64-30.29L366.64-30.29Q367.35-30.04 367.35-29.65L367.35-29.65L367.35 5.80L367.35 5.80Q367.35 11.12 365.84 12.44L365.84 12.44L365.84 12.44Q364.32 13.76 361.52 14.79L361.52 14.79L352.66 18.11L352.66 18.11Q351.62 18.47 350.95 18.47L350.95 18.47L350.95 18.47Q350.11 18.47 349.63 18.43L349.63 18.43L349.63 18.43Q345.08 18.27 341.73 14.70L341.73 14.70L341.73 14.70Q339.99 12.79 338.96 10.15L338.96 10.15L338.96 10.15Q341.76 9.06 344.70 7.99L344.70 7.99L344.70 7.99Q345.28 9.64 346.24 10.96L346.24 10.96L346.24 10.96Q348.43 13.92 351.66 14.86L351.66 14.86L351.66 14.86Q352.88 15.18 354.07 15.18L354.07 15.18L354.07 15.18Q354.52 15.18 354.94 15.15L354.94 15.15L354.94 15.15Q355.65 15.08 356.62 14.76L356.62 14.76L356.62 14.76Q357.01 14.60 357.62 14.37L357.62 14.37L357.62 14.37Q358.23 14.15 358.94 13.89L358.94 13.89L358.94 13.89Q360.49 13.12 361.00 10.76L361.00 10.76L361.00 10.76Q361.52 8.41 361.52 7.64L361.52 7.64ZM404.89-31.97L404.89-4.71L404.89-4.71Q404.89-2.61 406.51-2.05L406.51-2.05L406.51-2.05Q408.12-1.48 408.12-0.68L408.12-0.68L408.12-0.68Q408.12 0 407.44 0L407.44 0L399.61 0L399.61 0Q399.06 0 399.06-0.42L399.06-0.42L399.06-2.51L399.06-2.51Q397.29-1.84 395.92-1.31L395.92-1.31L395.92-1.31Q394.55-0.77 393.39-0.39L393.39-0.39L393.39-0.39Q390.39 0.61 387.23 0.93L387.23 0.93L387.23 0.93Q386.78 0.97 386.36 0.97L386.36 0.97L386.36 0.97Q383.69 0.97 381.27-0.84L381.27-0.84L381.27-0.84Q377.34-3.80 377.34-13.70L377.34-13.70L377.34-25.33L377.34-25.33Q377.34-27.36 375.73-27.94L375.73-27.94L375.73-27.94Q374.12-28.52 374.12-29.36L374.12-29.36L374.12-29.36Q374.12-30.04 374.79-30.04L374.79-30.04L374.79-30.04Q376.92-30.13 379.00-30.70L379.00-30.70L379.00-30.70Q381.08-31.26 383.17-31.97L383.17-31.97L383.17-13.70L383.17-13.70Q383.17-6.61 386.11-3.77L386.11-3.77L386.11-3.77Q387.98-1.93 390.68-1.93L390.68-1.93L390.68-1.93Q392.23-1.93 394.07-2.55L394.07-2.55L394.07-2.55Q394.74-2.77 395.84-3.19L395.84-3.19L395.84-3.19Q396.93-3.61 397.71-3.90L397.71-3.90L397.71-3.90Q397.87-3.96 398.24-4.09L398.24-4.09L398.24-4.09Q398.61-4.22 399.06-4.42L399.06-4.42L399.06-25.33L399.06-25.33Q399.06-27.36 397.45-27.94L397.45-27.94L397.45-27.94Q395.84-28.52 395.84-29.36L395.84-29.36L395.84-29.36Q395.84-30.04 396.52-30.04L396.52-30.04L396.52-30.04Q398.64-30.13 400.72-30.70L400.72-30.70L400.72-30.70Q402.80-31.26 404.89-31.97L404.89-31.97ZM422.97-31.97L422.97-27.49L422.97-27.49Q424.75-28.17 426.10-28.68L426.10-28.68L426.10-28.68Q427.45-29.20 428.68-29.62L428.68-29.62L428.68-29.62Q431.64-30.65 434.83-30.97L434.83-30.97L434.83-30.97Q435.22-31.00 435.64-31.00L435.64-31.00L435.64-31.00Q438.35-31.00 440.79-29.17L440.79-29.17L440.79-29.17Q444.69-26.17 444.69-16.31L444.69-16.31L444.69-4.71L444.69-4.71Q444.69-2.61 446.31-2.05L446.31-2.05L446.31-2.05Q447.92-1.48 447.92-0.68L447.92-0.68L447.92-0.68Q447.92 0 447.27 0L447.27 0L439.44 0L439.44 0Q438.89 0 438.89-0.42L438.89-0.42L438.89-16.31L438.89-16.31Q438.89-23.36 435.96-26.23L435.96-26.23L435.96-26.23Q434.09-28.07 431.38-28.07L431.38-28.07L431.38-28.07Q429.84-28.07 428.00-27.46L428.00-27.46L428.00-27.46Q427.29-27.20 426.21-26.80L426.21-26.80L426.21-26.80Q425.13-26.39 424.36-26.10L424.36-26.10L424.36-26.10Q423.59-25.81 422.97-25.59L422.97-25.59L422.97-4.71L422.97-4.71Q422.97-2.61 424.58-2.05L424.58-2.05L424.58-2.05Q426.20-1.48 426.20-0.68L426.20-0.68L426.20-0.68Q426.20 0 425.55 0L425.55 0L414.63 0L414.63 0Q413.95 0 413.95-0.68L413.95-0.68L413.95-0.68Q413.95-1.48 415.56-2.05L415.56-2.05L415.56-2.05Q417.17-2.61 417.17-4.71L417.17-4.71L417.17-25.33L417.17-25.33Q417.17-27.36 415.56-27.94L415.56-27.94L415.56-27.94Q413.95-28.52 413.95-29.36L413.95-29.36L413.95-29.36Q413.95-30.04 414.63-30.04L414.63-30.04L414.63-30.04Q416.75-30.13 418.83-30.70L418.83-30.70L418.83-30.70Q420.91-31.26 422.97-31.97L422.97-31.97ZM475.37-0.42L475.37-2.80L466.51 0.45L466.51 0.45Q465.48 0.81 464.80 0.81L464.80 0.81L463.48 0.81L463.48 0.81Q458.91 0.58 455.59-2.93L455.59-2.93L455.59-2.93Q452.27-6.45 451.82-11.57L451.82-11.57L451.82-11.57Q451.69-12.92 451.69-14.18L451.69-14.18L451.69-14.18Q451.69-15.86 451.91-17.43L451.91-17.43L451.91-17.43Q452.30-20.17 454.04-22.91L454.04-22.91L454.04-22.91Q454.88-24.33 456.91-25.88L456.91-25.88L456.91-25.88Q457.62-26.36 458.49-26.75L458.49-26.75L458.49-26.75Q461.07-27.71 463.66-28.68L463.66-28.68L463.66-28.68Q466.25-29.65 468.86-30.62L468.86-30.62L468.86-30.62Q469.41-30.81 469.90-30.81L469.90-30.81L470.06-30.81L470.06-30.81Q472.12-30.71 475.05-29.78L475.05-29.78L475.05-29.78Q475.31-29.68 475.37-29.65L475.37-29.65L475.37-29.65Q476.08-29.36 477.11-29.00L477.11-29.00L477.11-29.00Q477.53-28.88 477.89-28.88L477.89-28.88L477.89-28.88Q478.40-28.88 478.79-29.17L478.79-29.17L478.79-29.17Q479.47-29.75 479.76-30.13L479.76-30.13L479.76-30.13Q479.92-30.36 480.18-30.36L480.18-30.36L480.18-30.36Q480.34-30.36 480.50-30.29L480.50-30.29L480.50-30.29Q481.21-30.04 481.21-29.65L481.21-29.65L481.21-4.71L481.21-4.71Q481.21-2.61 482.82-2.05L482.82-2.05L482.82-2.05Q484.43-1.48 484.43-0.68L484.43-0.68L484.43-0.68Q484.43 0 483.75 0L483.75 0L475.92 0L475.92 0Q475.37 0 475.37-0.42L475.37-0.42ZM475.37-4.71L475.37-24.78L475.37-24.78Q474.05-26.01 471.89-27.05L471.89-27.05L471.89-27.05Q469.73-28.10 468.06-28.17L468.06-28.17L467.93-28.17L467.93-28.17Q467.29-28.17 466.64-27.91L466.64-27.91L466.64-27.91Q465.48-27.49 464.34-27.05L464.34-27.05L464.34-27.05Q463.19-26.62 462.03-26.20L462.03-26.20L462.03-26.20Q461.23-25.88 460.74-25.36L460.74-25.36L460.74-25.36Q458.75-23.24 458.07-20.21L458.07-20.21L458.07-20.21Q457.52-17.92 457.52-15.66L457.52-15.66L457.52-15.66Q457.52-14.95 457.58-14.21L457.58-14.21L457.58-14.21Q457.94-9.57 460.10-6.67L460.10-6.67L460.10-6.67Q462.26-3.67 465.51-2.77L465.51-2.77L465.51-2.77Q466.74-2.42 467.99-2.42L467.99-2.42L467.99-2.42Q468.38-2.42 468.80-2.45L468.80-2.45L468.80-2.45Q469.51-2.51 470.48-2.87L470.48-2.87L470.48-2.87Q471.22-3.13 472.80-3.72L472.80-3.72L472.80-3.72Q474.38-4.32 475.37-4.71L475.37-4.71ZM502.70-30.87L502.70-30.87L502.70-30.87Q507.44-30.62 511.66-28.00L511.66-28.00L510.98-22.37L510.98-22.37Q510.92-21.88 510.47-21.88L510.47-21.88L510.37-21.88L510.37-21.88Q509.99-21.91 509.66-22.66L509.66-22.66L509.66-22.66Q508.50-25.07 506.28-26.70L506.28-26.70L506.28-26.70Q504.06-28.33 501.48-28.42L501.48-28.42L501.35-28.42L501.35-28.42Q499.35-28.42 497.45-27.42L497.45-27.42L497.45-27.42Q495.45-26.39 495-24.27L495-24.27L495-24.27Q494.84-23.56 494.84-22.98L494.84-22.98L494.84-22.98Q494.84-20.95 496.64-20.08L496.64-20.08L496.64-20.08Q498.93-18.92 501.96-18.24L501.96-18.24L501.96-18.24Q506.12-17.31 509.52-15.73L509.52-15.73L509.52-15.73Q512.92-14.15 513.24-9.12L513.24-9.12L513.24-8.80L513.24-8.80Q513.24-6.41 511.40-4.03L511.40-4.03L511.40-4.03Q509.41-1.45 505.63-0.13L505.63-0.13L505.63-0.13Q503.28 0.64 500.41 0.74L500.41 0.74L499.54 0.74L499.54 0.74Q495.58 0.74 491.97-0.29L491.97-0.29L489.36-7.38L489.46-8.02L489.46-8.02Q489.49-8.51 490.04-8.51L490.04-8.51L490.10-8.51L490.10-8.51Q490.42-8.44 490.78-7.73L490.78-7.73L490.78-7.73Q492.26-4.54 494.40-3.21L494.40-3.21L494.40-3.21Q496.55-1.87 499.83-1.77L499.83-1.77L500.22-1.77L500.22-1.77Q502.51-1.77 505.25-2.84L505.25-2.84L505.25-2.84Q508.21-4.00 508.34-7.03L508.34-7.03L508.34-7.22L508.34-7.22Q508.34-10.70 505.05-11.63L505.05-11.63L505.05-11.63Q501.64-12.60 499.06-13.34L499.06-13.34L499.06-13.34Q495.87-14.21 493.07-16.11L493.07-16.11L493.07-16.11Q490.29-17.98 490.29-21.66L490.29-21.66L490.29-21.82L490.29-21.82Q490.33-26.81 494.16-28.94L494.16-28.94L494.16-28.94Q497.67-30.91 501.93-30.91L501.93-30.91L501.93-30.91Q502.32-30.91 502.70-30.87ZM517.69-17.76L517.69-17.76L517.69-17.76Q518.59-23.72 522.44-27.30L522.44-27.30L522.44-27.30Q526.29-30.87 532.58-30.94L532.58-30.94L532.71-30.94L532.71-30.94Q539.05-30.94 542.41-27.33L542.41-27.33L542.41-27.33Q545.76-23.65 545.76-17.76L545.76-17.76L545.76-17.76Q545.72-16.47 545.66-15.94L545.66-15.94L545.66-15.94Q545.60-15.40 544.34-15.40L544.34-15.40L523.81-15.40L523.81-15.40Q523.91-10.18 526.45-6.75L526.45-6.75L526.45-6.75Q529.00-3.32 532.87-2.55L532.87-2.55L532.87-2.55Q533.99-2.29 535.15-2.29L535.15-2.29L535.15-2.29Q538.22-2.29 541.50-4.06L541.50-4.06L541.50-4.06Q543.34-5.06 543.98-5.06L543.98-5.06L543.98-5.06Q544.15-5.06 544.24-5.00L544.24-5.00L544.24-5.00Q544.34-4.90 544.34-4.71L544.34-4.71L544.34-4.71Q544.34-4.29 543.92-3.51L543.92-3.51L543.92-3.51Q543.53-2.74 543.29-2.48L543.29-2.48L543.29-2.48Q543.05-2.22 542.86-2.03L542.86-2.03L542.86-2.03Q539.34 1.00 533.32 1.00L533.32 1.00L533.32 1.00Q524.87 0.93 520.65-4.42L520.65-4.42L520.65-4.42Q517.40-8.54 517.40-14.21L517.40-14.21L517.40-14.21Q517.40-15.92 517.69-17.76ZM523.81-17.76L523.81-17.76L540.79-17.76L540.79-17.76Q540.79-21.69 539.02-24.98L539.02-24.98L539.02-24.98Q537.31-28.10 532.77-28.10L532.77-28.10L532.42-28.10L532.42-28.10Q527.87-27.97 525.91-24.81L525.91-24.81L525.91-24.81Q523.94-21.66 523.81-17.76ZM560.07-14.28L560.07-14.28L560.07-4.71L560.07-4.71Q560.07-2.61 561.68-2.05L561.68-2.05L561.68-2.05Q563.29-1.48 563.29-0.68L563.29-0.68L563.29-0.68Q563.29 0 562.64 0L562.64 0L551.72 0L551.72 0Q551.04 0 551.04-0.68L551.04-0.68L551.04-0.68Q551.04-1.48 552.65-2.05L552.65-2.05L552.65-2.05Q554.26-2.61 554.26-4.71L554.26-4.71L554.26-40.51L554.26-40.51Q554.26-42.57 552.65-43.15L552.65-43.15L552.65-43.15Q551.04-43.73 551.04-44.57L551.04-44.57L551.04-44.57Q551.04-45.25 551.72-45.25L551.72-45.25L551.72-45.25Q553.85-45.34 555.92-45.89L555.92-45.89L555.92-45.89Q558.00-46.44 560.07-47.15L560.07-47.15L560.07-17.76L571.47-26.88L571.47-26.88Q573.44-28.49 574.95-29.42L574.95-29.42L574.95-29.42Q575.82-29.94 576.60-29.94L576.60-29.94L576.60-29.94Q577.18-29.94 577.73-29.65L577.73-29.65L580.11-28.17L580.11-28.17Q580.50-27.91 580.50-27.59L580.50-27.59L580.50-27.59Q580.50-27.42 580.40-27.26L580.40-27.26L578.89-23.88L577.27-24.72L577.27-24.72Q576.31-25.20 575.41-25.20L575.41-25.20L575.41-25.20Q574.31-25.20 573.34-24.49L573.34-24.49L573.34-24.49Q568.67-20.98 565.09-18.21L565.09-18.21L576.31-7.25L576.31-7.25Q579.79-3.87 580.82-3.42L580.82-3.42L580.82-3.42Q581.56-3.06 582.33-3.06L582.33-3.06L582.33-3.06Q582.66-3.06 583.01-3.13L583.01-3.13L583.01-3.13Q583.27-3.19 583.49-3.19L583.49-3.19L583.49-3.19Q584.14-3.19 584.36-2.71L584.36-2.71L584.36-2.71Q584.43-2.51 584.43-2.38L584.43-2.38L584.43-2.38Q584.43-2.06 584.11-1.93L584.11-1.93L582.04-0.93L582.04-0.93Q580.37-0.19 578.92-0.19L578.92-0.19L578.92-0.19Q577.98-0.19 577.15-0.55L577.15-0.55L577.15-0.55Q575.05-1.39 573.31-3.09L573.31-3.09L561.03-15.05L561.03-15.05Q560.77-14.79 560.07-14.28ZM610.92-0.42L610.92-2.80L602.06 0.45L602.06 0.45Q601.03 0.81 600.35 0.81L600.35 0.81L599.03 0.81L599.03 0.81Q594.45 0.58 591.13-2.93L591.13-2.93L591.13-2.93Q587.81-6.45 587.36-11.57L587.36-11.57L587.36-11.57Q587.23-12.92 587.23-14.18L587.23-14.18L587.23-14.18Q587.23-15.86 587.46-17.43L587.46-17.43L587.46-17.43Q587.84-20.17 589.58-22.91L589.58-22.91L589.58-22.91Q590.42-24.33 592.45-25.88L592.45-25.88L592.45-25.88Q593.16-26.36 594.03-26.75L594.03-26.75L594.03-26.75Q596.61-27.71 599.20-28.68L599.20-28.68L599.20-28.68Q601.80-29.65 604.41-30.62L604.41-30.62L604.41-30.62Q604.96-30.81 605.44-30.81L605.44-30.81L605.60-30.81L605.60-30.81Q607.66-30.71 610.60-29.78L610.60-29.78L610.60-29.78Q610.85-29.68 610.92-29.65L610.92-29.65L610.92-29.65Q611.63-29.36 612.66-29.00L612.66-29.00L612.66-29.00Q613.08-28.88 613.43-28.88L613.43-28.88L613.43-28.88Q613.95-28.88 614.33-29.17L614.33-29.17L614.33-29.17Q615.01-29.75 615.30-30.13L615.30-30.13L615.30-30.13Q615.46-30.36 615.72-30.36L615.72-30.36L615.72-30.36Q615.88-30.36 616.04-30.29L616.04-30.29L616.04-30.29Q616.75-30.04 616.75-29.65L616.75-29.65L616.75-4.71L616.75-4.71Q616.75-2.61 618.36-2.05L618.36-2.05L618.36-2.05Q619.97-1.48 619.97-0.68L619.97-0.68L619.97-0.68Q619.97 0 619.30 0L619.30 0L611.47 0L611.47 0Q610.92 0 610.92-0.42L610.92-0.42ZM610.92-4.71L610.92-24.78L610.92-24.78Q609.60-26.01 607.44-27.05L607.44-27.05L607.44-27.05Q605.28-28.10 603.60-28.17L603.60-28.17L603.47-28.17L603.47-28.17Q602.83-28.17 602.19-27.91L602.19-27.91L602.19-27.91Q601.03-27.49 599.88-27.05L599.88-27.05L599.88-27.05Q598.74-26.62 597.58-26.20L597.58-26.20L597.58-26.20Q596.77-25.88 596.29-25.36L596.29-25.36L596.29-25.36Q594.29-23.24 593.61-20.21L593.61-20.21L593.61-20.21Q593.07-17.92 593.07-15.66L593.07-15.66L593.07-15.66Q593.07-14.95 593.13-14.21L593.13-14.21L593.13-14.21Q593.48-9.57 595.64-6.67L595.64-6.67L595.64-6.67Q597.80-3.67 601.06-2.77L601.06-2.77L601.06-2.77Q602.28-2.42 603.54-2.42L603.54-2.42L603.54-2.42Q603.93-2.42 604.34-2.45L604.34-2.45L604.34-2.45Q605.05-2.51 606.02-2.87L606.02-2.87L606.02-2.87Q606.76-3.13 608.34-3.72L608.34-3.72L608.34-3.72Q609.92-4.32 610.92-4.71L610.92-4.71ZM635.44-19.17L635.44-19.17L635.44-4.71L635.44-4.71Q635.44-2.61 637.04-2.05L637.04-2.05L637.04-2.05Q638.63-1.48 638.63-0.68L638.63-0.68L638.63-0.68Q638.63 0 637.99 0L637.99 0L627.06 0L627.06 0Q626.39 0 626.39-0.68L626.39-0.68L626.39-0.68Q626.39-1.48 628.00-2.05L628.00-2.05L628.00-2.05Q629.61-2.61 629.61-4.71L629.61-4.71L629.61-25.33L629.61-25.33Q629.61-27.36 628.00-27.94L628.00-27.94L628.00-27.94Q626.39-28.52 626.39-29.36L626.39-29.36L626.39-29.36Q626.39-30.04 627.06-30.04L627.06-30.04L627.06-30.04Q629.19-30.13 631.27-30.70L631.27-30.70L631.27-30.70Q633.35-31.26 635.44-31.97L635.44-31.97L635.44-27.71L639.92-29.42L639.92-29.42Q642.40-30.36 643.79-30.81L643.79-30.81L643.79-30.81Q644.21-30.94 644.79-30.94L644.79-30.94L644.79-30.94Q645.98-30.94 647.82-30.29L647.82-30.29L647.11-22.20L645.63-22.20L645.63-22.20Q644.37-26.91 640.79-26.91L640.79-26.91L640.79-26.91Q640.44-26.91 640.08-26.88L640.08-26.88L640.08-26.88Q637.63-26.59 636.59-24.38L636.59-24.38L636.59-24.38Q635.54-22.17 635.44-19.17ZM674.92-0.42L674.92-2.80L666.06 0.45L666.06 0.45Q665.03 0.81 664.35 0.81L664.35 0.81L663.03 0.81L663.03 0.81Q658.45 0.58 655.13-2.93L655.13-2.93L655.13-2.93Q651.81-6.45 651.36-11.57L651.36-11.57L651.36-11.57Q651.23-12.92 651.23-14.18L651.23-14.18L651.23-14.18Q651.23-15.86 651.46-17.43L651.46-17.43L651.46-17.43Q651.85-20.17 653.59-22.91L653.59-22.91L653.59-22.91Q654.42-24.33 656.46-25.88L656.46-25.88L656.46-25.88Q657.16-26.36 658.03-26.75L658.03-26.75L658.03-26.75Q660.61-27.71 663.21-28.68L663.21-28.68L663.21-28.68Q665.80-29.65 668.41-30.62L668.41-30.62L668.41-30.62Q668.96-30.81 669.44-30.81L669.44-30.81L669.60-30.81L669.60-30.81Q671.67-30.71 674.60-29.78L674.60-29.78L674.60-29.78Q674.86-29.68 674.92-29.65L674.92-29.65L674.92-29.65Q675.63-29.36 676.66-29.00L676.66-29.00L676.66-29.00Q677.08-28.88 677.43-28.88L677.43-28.88L677.43-28.88Q677.95-28.88 678.34-29.17L678.34-29.17L678.34-29.17Q679.01-29.75 679.30-30.13L679.30-30.13L679.30-30.13Q679.46-30.36 679.72-30.36L679.72-30.36L679.72-30.36Q679.88-30.36 680.04-30.29L680.04-30.29L680.04-30.29Q680.75-30.04 680.75-29.65L680.75-29.65L680.75-4.71L680.75-4.71Q680.75-2.61 682.37-2.05L682.37-2.05L682.37-2.05Q683.98-1.48 683.98-0.68L683.98-0.68L683.98-0.68Q683.98 0 683.30 0L683.30 0L675.47 0L675.47 0Q674.92 0 674.92-0.42L674.92-0.42ZM674.92-4.71L674.92-24.78L674.92-24.78Q673.60-26.01 671.44-27.05L671.44-27.05L671.44-27.05Q669.28-28.10 667.61-28.17L667.61-28.17L667.48-28.17L667.48-28.17Q666.83-28.17 666.19-27.91L666.19-27.91L666.19-27.91Q665.03-27.49 663.88-27.05L663.88-27.05L663.88-27.05Q662.74-26.62 661.58-26.20L661.58-26.20L661.58-26.20Q660.77-25.88 660.29-25.36L660.29-25.36L660.29-25.36Q658.29-23.24 657.62-20.21L657.62-20.21L657.62-20.21Q657.07-17.92 657.07-15.66L657.07-15.66L657.07-15.66Q657.07-14.95 657.13-14.21L657.13-14.21L657.13-14.21Q657.49-9.57 659.65-6.67L659.65-6.67L659.65-6.67Q661.80-3.67 665.06-2.77L665.06-2.77L665.06-2.77Q666.28-2.42 667.54-2.42L667.54-2.42L667.54-2.42Q667.93-2.42 668.35-2.45L668.35-2.45L668.35-2.45Q669.06-2.51 670.02-2.87L670.02-2.87L670.02-2.87Q670.76-3.13 672.34-3.72L672.34-3.72L672.34-3.72Q673.92-4.32 674.92-4.71L674.92-4.71ZM698.12-31.97L698.12-27.49L698.12-27.49Q699.90-28.17 701.25-28.68L701.25-28.68L701.25-28.68Q702.60-29.20 703.83-29.62L703.83-29.62L703.83-29.62Q706.79-30.65 709.98-30.97L709.98-30.97L709.98-30.97Q710.37-31.00 710.79-31.00L710.79-31.00L710.79-31.00Q713.50-31.00 715.95-29.17L715.95-29.17L715.95-29.17Q719.84-26.17 719.84-16.31L719.84-16.31L719.84-4.71L719.84-4.71Q719.84-2.61 721.46-2.05L721.46-2.05L721.46-2.05Q723.07-1.48 723.07-0.68L723.07-0.68L723.07-0.68Q723.07 0 722.42 0L722.42 0L714.59 0L714.59 0Q714.04 0 714.04-0.42L714.04-0.42L714.04-16.31L714.04-16.31Q714.04-23.36 711.11-26.23L711.11-26.23L711.11-26.23Q709.24-28.07 706.54-28.07L706.54-28.07L706.54-28.07Q704.99-28.07 703.15-27.46L703.15-27.46L703.15-27.46Q702.44-27.20 701.36-26.80L701.36-26.80L701.36-26.80Q700.28-26.39 699.51-26.10L699.51-26.10L699.51-26.10Q698.74-25.81 698.12-25.59L698.12-25.59L698.12-4.71L698.12-4.71Q698.12-2.61 699.74-2.05L699.74-2.05L699.74-2.05Q701.35-1.48 701.35-0.68L701.35-0.68L701.35-0.68Q701.35 0 700.70 0L700.70 0L689.78 0L689.78 0Q689.10 0 689.10-0.68L689.10-0.68L689.10-0.68Q689.10-1.48 690.71-2.05L690.71-2.05L690.71-2.05Q692.32-2.61 692.32-4.71L692.32-4.71L692.32-25.33L692.32-25.33Q692.32-27.36 690.71-27.94L690.71-27.94L690.71-27.94Q689.10-28.52 689.10-29.36L689.10-29.36L689.10-29.36Q689.10-30.04 689.78-30.04L689.78-30.04L689.78-30.04Q691.90-30.13 693.98-30.70L693.98-30.70L693.98-30.70Q696.06-31.26 698.12-31.97L698.12-31.97Z" fill="url(#editing-glowing-gradient)"></path></g></g><style>text {
  font-size: 64px;
  font-family: Arial Black;
  dominant-baseline: central;
  text-anchor: middle;
}</style></svg>